<?xml version="1.0" standalone="no"?>
<!DOCTYPE svg PUBLIC "-//W3C//DTD SVG 20010904//EN"
 "http://www.w3.org/TR/2001/REC-SVG-20010904/DTD/svg10.dtd">
<svg version="1.0" xmlns="http://www.w3.org/2000/svg"
 width="495.000000pt" height="895.000000pt" viewBox="0 0 495.000000 895.000000"
 preserveAspectRatio="xMidYMid meet">

<g transform="translate(0.000000,895.000000) scale(0.100000,-0.100000)"
fill="#000000" stroke="none">
<path d="M0 4475 l0 -4475 2475 0 2475 0 0 4475 0 4475 -2475 0 -2475 0 0
-4475z m2900 3605 c13 -7 21 -7 25 0 3 5 19 10 36 10 34 0 37 -17 14 -73 -19
-45 -19 -57 -1 -57 8 0 17 -7 20 -16 3 -8 10 -12 16 -9 5 3 10 2 10 -2 0 -16
-90 -9 -100 7 -7 10 -10 11 -10 3 0 -19 -57 -16 -64 3 -12 32 -6 112 10 128
18 19 20 19 44 6z m181 -35 l5 -40 8 30 c13 53 15 55 36 55 18 0 20 -7 21 -62
1 -66 4 -64 14 15 5 41 9 47 30 47 25 0 27 -8 38 -120 2 -19 5 0 5 43 2 58 5
78 15 75 7 -3 13 -29 15 -71 2 -51 6 -67 17 -67 22 0 18 -18 -4 -25 -23 -7
-73 4 -83 18 -4 6 -13 4 -23 -6 -9 -10 -25 -17 -36 -17 -15 0 -19 8 -20 38 -2
30 -3 32 -6 9 -2 -15 -13 -32 -24 -37 -17 -10 -19 -7 -19 26 0 44 -11 40 -12
-4 -1 -21 -5 -29 -14 -25 -10 4 -14 27 -14 85 0 77 1 79 23 76 17 -2 23 -11
28 -43z m249 -20 c0 -37 4 -65 10 -65 6 0 10 28 10 65 0 61 13 85 26 50 5 -13
8 -13 21 1 9 9 22 12 32 8 9 -4 23 -7 31 -7 8 0 22 3 31 7 28 12 49 -20 49
-74 0 -27 -3 -55 -6 -64 -7 -17 -64 -23 -64 -6 0 5 -14 1 -30 -8 -29 -16 -32
-16 -44 1 -15 20 -30 23 -23 5 6 -18 -52 -15 -64 3 -5 8 -9 44 -9 82 0 53 3
67 15 67 12 0 15 -14 15 -65z m-1594 -882 c23 -9 43 16 47 60 l4 42 1 -46 c2
-52 -13 -72 -50 -67 -21 3 -23 9 -24 58 -1 52 -1 53 3 7 3 -30 10 -50 19 -54z
m421 15 c-2 -18 -4 -6 -4 27 0 33 2 48 4 33 2 -15 2 -42 0 -60z m246 59 c3 -7
3 -26 0 -41 -4 -18 -1 -32 8 -38 11 -7 9 -8 -6 -6 -16 3 -21 12 -23 51 -3 44
9 64 21 34z m440 0 c3 -7 3 -26 0 -41 -4 -18 -1 -32 8 -38 11 -7 9 -8 -6 -6
-16 3 -21 12 -23 51 -3 44 9 64 21 34z m-921 -21 c11 -16 10 -66 -2 -66 -5 0
-10 14 -10 30 0 20 -5 30 -15 30 -10 0 -15 -10 -15 -30 0 -16 -4 -30 -10 -30
-5 0 -10 14 -10 30 0 42 -27 40 -33 -2 -3 -30 -4 -29 -5 8 l-2 40 48 1 c26 0
50 -5 54 -11z m116 -26 c3 -33 1 -36 -28 -38 -24 -2 -30 2 -30 18 0 13 9 22
25 26 14 3 22 10 19 15 -3 6 -15 7 -26 3 -14 -4 -18 -3 -13 6 4 6 17 10 28 8
17 -2 23 -11 25 -38z m82 25 c16 -19 9 -45 -15 -59 -11 -6 -25 -18 -32 -26
-10 -12 -12 -6 -13 37 0 51 3 55 41 62 4 0 12 -6 19 -14z m77 -47 c-2 -13 -4
-3 -4 22 0 25 2 35 4 23 2 -13 2 -33 0 -45z m78 51 c4 -6 0 -9 -11 -7 -14 2
-20 -4 -22 -26 -3 -25 -1 -28 17 -23 12 3 21 1 21 -4 0 -13 -34 -11 -48 3 -7
7 -12 19 -12 28 0 32 41 53 55 29z m83 -31 c3 -36 2 -38 -27 -38 -24 0 -31 4
-31 19 0 11 9 23 20 26 11 4 18 10 15 15 -3 5 -13 6 -22 3 -11 -4 -14 -3 -9 6
4 7 18 11 29 9 17 -2 23 -11 25 -40z m89 -20 c-2 -13 -4 -3 -4 22 0 25 2 35 4
23 2 -13 2 -33 0 -45z m62 36 c16 41 23 28 9 -17 -14 -45 -23 -47 -37 -6 -15
44 -12 61 4 24 l13 -30 11 29z m91 12 c18 -22 9 -60 -16 -64 -31 -4 -50 23
-36 53 13 28 34 32 52 11z m120 -6 c9 -18 8 -20 -15 -20 -16 0 -25 -6 -25 -16
0 -12 6 -15 26 -10 17 5 23 3 19 -4 -3 -5 -17 -10 -30 -10 -18 0 -26 7 -31 25
-11 46 35 75 56 35z m65 10 c18 15 20 -1 3 -18 -9 -9 -9 -15 0 -24 18 -18 14
-32 -5 -17 -13 11 -17 11 -20 2 -3 -7 -9 -13 -15 -13 -6 0 -5 6 2 15 10 12 10
21 1 42 -11 23 -10 25 3 13 13 -10 19 -10 31 0z m129 4 c24 -9 19 -32 -6 -36
-26 -3 -22 -23 5 -22 9 0 17 -3 17 -8 0 -5 -12 -8 -27 -6 -31 3 -43 38 -23 64
14 16 13 16 34 8z m69 -11 c-7 -3 -13 -18 -13 -34 0 -16 -4 -29 -10 -29 -5 0
-10 15 -10 34 0 25 5 36 18 38 20 5 32 -3 15 -9z m83 -28 c1 -34 1 -35 -3 -7
-6 42 -35 40 -44 -3 -6 -28 -7 -27 -8 10 -1 38 1 41 27 40 25 0 27 -3 28 -40z
m82 33 c17 -17 15 -58 -4 -65 -36 -13 -68 33 -44 62 15 18 32 19 48 3z m-468
-264 c0 -17 -26 -19 -36 -3 -7 12 15 31 28 23 4 -3 8 -12 8 -20z m-926 0 c24
-23 29 -59 14 -91 -11 -23 -20 -29 -55 -31 -33 -2 -44 1 -57 20 -36 51 -5 118
53 118 16 0 37 -7 45 -16z m267 0 c10 -12 10 -20 1 -34 -7 -12 -8 -21 -2 -25
16 -10 12 -52 -6 -59 -9 -3 -31 -6 -50 -6 l-34 0 0 70 0 70 39 0 c23 0 44 -6
52 -16z m313 -19 c8 -41 21 -38 31 5 5 23 12 30 30 30 25 0 35 -29 35 -101 0
-32 -4 -39 -19 -39 -15 0 -21 8 -24 33 l-3 32 -8 -32 c-7 -25 -14 -33 -31 -33
-17 0 -24 8 -31 33 l-8 32 -3 -32 c-3 -23 -10 -33 -21 -33 -15 0 -17 10 -14
70 4 69 4 70 32 70 24 0 29 -5 34 -35z m-144 10 c0 -8 5 -15 10 -15 6 0 10 -7
10 -15 0 -8 -4 -15 -10 -15 -16 0 -12 -30 7 -48 16 -16 15 -17 -1 -20 -30 -6
-46 6 -46 36 0 15 -6 34 -12 41 -10 11 -10 14 0 18 6 3 12 11 12 19 0 8 7 14
15 14 8 0 15 -7 15 -15z m860 -22 c1 -17 1 -17 11 0 8 13 23 17 72 16 34 0 56
-3 50 -6 -7 -2 -13 -18 -13 -34 0 -16 -4 -29 -10 -29 -5 0 -10 14 -10 30 0 19
-5 30 -14 30 -9 0 -12 -7 -9 -19 6 -24 -24 -54 -46 -45 -9 4 -31 6 -48 5 -31
-2 -33 0 -33 34 0 31 3 35 25 35 17 0 25 -6 25 -17z m-1180 -10 c0 -9 -7 -25
-17 -35 -15 -17 -15 -18 0 -18 10 0 17 -7 17 -15 0 -11 -11 -15 -40 -15 -44 0
-50 11 -24 48 14 20 14 22 0 22 -9 0 -16 7 -16 15 0 11 11 15 40 15 31 0 40
-4 40 -17z m258 5 c7 -7 12 -24 12 -38 0 -34 -17 -50 -52 -50 -37 0 -57 38
-40 75 13 27 58 35 80 13z m352 -23 c0 -19 5 -35 10 -35 6 0 10 16 10 35 0 28
4 35 20 35 17 0 20 -7 20 -51 l0 -50 -47 3 -48 3 -3 48 c-3 42 -1 47 17 47 17
0 21 -6 21 -35z m148 16 c3 -10 -1 -12 -17 -8 -11 3 -21 2 -21 -3 0 -4 9 -10
21 -13 15 -4 20 -12 17 -29 -2 -19 -10 -24 -40 -26 -29 -2 -38 0 -38 13 0 11
6 14 25 9 14 -3 25 -3 25 0 0 4 -11 11 -25 16 -24 9 -34 38 -18 54 12 12 66 2
71 -13z m52 -31 c0 -43 -3 -50 -20 -50 -17 0 -20 7 -20 50 0 43 3 50 20 50 17
0 20 -7 20 -50z m90 35 c0 -8 -9 -15 -20 -15 -13 0 -20 -7 -20 -19 0 -26 44
-34 58 -10 6 10 22 19 34 22 20 4 20 4 -4 6 -18 1 -28 7 -28 17 0 12 9 14 38
12 37 -3 37 -4 40 -50 l3 -47 -81 1 c-67 0 -82 3 -90 18 -14 26 -12 46 6 64
20 21 64 21 64 1z m261 -265 c23 -13 26 -62 3 -84 -8 -9 -26 -16 -40 -16 -22
0 -24 3 -24 55 0 49 2 55 21 55 11 0 29 -5 40 -10z m419 -46 c0 -54 0 -55 -27
-52 -24 3 -28 8 -28 33 0 22 6 33 23 40 12 5 22 15 22 22 0 7 2 13 5 13 3 0 5
-25 5 -56z m-638 -1 c-2 -21 3 -40 10 -44 10 -7 9 -9 -3 -9 -12 0 -18 11 -21
39 -4 43 0 66 10 56 3 -3 5 -22 4 -42z m-1345 -33 c1 -30 -1 -47 -3 -38 -3 9
-15 18 -27 20 -26 4 -35 41 -16 64 25 31 44 12 46 -46z m163 40 c10 -18 8 -20
-19 -20 -22 0 -29 -4 -25 -14 3 -8 15 -17 27 -19 l22 -4 -21 -2 c-33 -2 -49
24 -36 54 14 30 37 32 52 5z m53 2 c-6 -4 -13 -21 -16 -37 -4 -28 -4 -27 -6 7
0 21 4 38 12 41 16 6 24 -2 10 -11z m115 -25 c3 -37 2 -38 -24 -35 -37 4 -42
25 -10 39 31 14 35 34 6 26 -11 -3 -17 -1 -14 4 14 23 39 3 42 -34z m76 34 c4
-5 -3 -7 -13 -4 -13 3 -21 -2 -26 -16 -8 -27 1 -41 28 -42 18 -1 18 -2 4 -6
-22 -6 -47 14 -47 36 0 31 40 55 54 32z m74 -3 c19 -19 14 -28 -13 -28 -30 0
-34 -27 -5 -33 17 -4 16 -4 -2 -3 -38 2 -35 75 3 76 3 0 10 -5 17 -12z m60 5
c-24 -6 -23 -17 5 -36 17 -11 19 -18 11 -27 -7 -7 -20 -10 -30 -7 -16 4 -15 5
4 6 30 1 28 15 -4 30 -21 9 -24 14 -14 26 7 8 20 14 29 14 13 -1 13 -2 -1 -6z
m70 0 c-24 -6 -23 -17 5 -36 17 -11 19 -18 11 -27 -7 -7 -20 -10 -30 -7 -16 4
-15 5 4 6 30 1 28 15 -4 30 -21 9 -24 14 -14 26 7 8 20 14 29 14 13 -1 13 -2
-1 -6z m90 -36 c3 -37 2 -38 -24 -35 -37 4 -42 25 -10 39 31 14 35 34 6 26
-11 -3 -17 -1 -14 4 14 23 39 3 42 -34z m55 25 c-6 -4 -13 -21 -16 -37 -4 -28
-4 -27 -6 7 0 21 4 38 12 41 16 6 24 -2 10 -11z m102 8 c3 -5 0 -7 -8 -4 -27
10 -27 -13 -1 -25 33 -15 26 -36 -12 -38 -20 -1 -22 0 -6 4 12 2 22 8 22 12 0
5 -10 16 -22 24 -20 14 -21 18 -8 26 19 13 27 14 35 1z m163 -2 c7 -7 12 -24
12 -38 0 -21 -5 -26 -30 -28 -24 -2 -30 2 -30 18 0 13 9 22 25 26 14 3 22 11
19 16 -4 5 -15 8 -25 5 -11 -3 -17 -1 -13 4 7 13 28 11 42 -3z m116 3 c4 -5
-3 -7 -13 -4 -13 3 -21 -2 -26 -16 -8 -27 1 -41 28 -42 18 -1 18 -2 4 -6 -22
-6 -47 14 -47 36 0 31 40 55 54 32z m76 -5 c18 -22 9 -60 -16 -64 -31 -4 -50
23 -36 53 13 28 34 32 52 11z m87 -31 c1 -38 1 -38 -5 -7 -4 18 -10 33 -14 32
-5 0 -12 0 -17 0 -6 0 -12 -15 -14 -32 -3 -30 -4 -29 -5 7 -2 38 0 41 26 40
25 0 27 -4 29 -40z m131 2 c3 -37 2 -38 -24 -35 -37 4 -42 25 -10 39 31 14 35
34 6 26 -11 -3 -17 -1 -14 4 14 23 39 3 42 -34z m240 36 c-24 -6 -23 -20 2
-28 11 -3 20 -15 20 -26 0 -14 -7 -19 -27 -18 -24 2 -25 2 -5 6 27 5 29 20 2
28 -32 10 -24 46 9 44 13 -1 13 -2 -1 -6z m96 -1 c3 -5 -5 -8 -17 -8 -32 1
-36 -41 -5 -54 l23 -10 -25 3 c-28 2 -40 38 -20 63 14 15 36 19 44 6z m76 -7
c17 -20 4 -65 -18 -65 -22 0 -42 19 -42 40 0 35 38 51 60 25z m53 -3 c-6 -4
-13 -21 -16 -37 -4 -28 -4 -27 -6 7 0 21 4 38 12 41 16 6 24 -2 10 -11z
m-1837 -52 c9 0 14 11 14 30 0 17 5 30 10 30 6 0 10 -15 10 -33 0 -29 -3 -33
-30 -35 -29 -2 -30 -1 -28 35 1 37 1 37 5 6 3 -20 10 -33 19 -33z m860 0 c9 0
14 11 14 30 0 17 5 30 10 30 6 0 10 -15 10 -33 0 -29 -3 -33 -30 -35 -29 -2
-30 -1 -28 35 1 37 1 37 5 6 3 -20 10 -33 19 -33z m701 8 c-2 -13 -4 -5 -4 17
-1 22 1 32 4 23 2 -10 2 -28 0 -40z m-2063 -197 c4 -5 -3 -7 -14 -4 -23 6 -26
13 -6 13 8 0 17 -4 20 -9z m1140 -7 c29 -29 11 -84 -27 -84 -30 0 -47 18 -47
50 0 47 42 66 74 34z m136 -31 l16 -36 13 41 c16 48 31 55 31 15 0 -16 3 -38
6 -50 4 -14 2 -23 -5 -23 -6 0 -11 17 -12 38 l0 37 -16 -37 c-8 -21 -18 -38
-22 -38 -4 0 -13 15 -20 33 l-14 32 -7 -35 c-7 -35 -7 -35 -9 11 -2 71 11 75
39 12z m170 -3 c0 -27 -4 -50 -10 -50 -5 0 -10 23 -10 50 0 28 5 50 10 50 6 0
10 -22 10 -50z m364 44 c9 -3 16 -11 16 -16 0 -6 -7 -5 -15 2 -22 18 -37 0
-33 -36 4 -39 33 -43 46 -7 6 15 11 21 11 12 1 -25 -24 -51 -45 -48 -23 5 -32
62 -13 85 13 16 12 16 33 8z m94 -6 c13 -13 16 -47 6 -72 -6 -17 -39 -22 -48
-8 -3 5 5 8 17 8 17 -1 23 6 25 28 7 55 -40 58 -51 3 l-4 -22 -2 22 c-1 20 22
53 38 53 4 0 12 -5 19 -12z m86 -4 c30 -30 14 -84 -25 -84 -28 0 -41 64 -17
88 16 16 23 15 42 -4z m85 2 c7 -8 11 -30 9 -48 -2 -27 -7 -33 -27 -33 -13 0
-25 6 -27 13 -1 7 0 8 3 2 2 -5 14 -10 24 -10 17 0 20 6 17 37 -4 46 -22 53
-42 16 -8 -15 -15 -23 -16 -18 0 14 29 55 39 55 5 0 14 -6 20 -14z m-1757 -42
c-6 -35 -12 -29 -12 14 0 23 3 32 9 24 4 -7 6 -24 3 -38z m1407 34 c7 11 9 11
14 -1 8 -21 2 -24 -32 -19 -24 3 -27 7 -18 17 9 9 14 10 20 1 5 -8 9 -7 16 2z
m-1744 -69 c28 -6 28 -7 5 -8 -33 -1 -50 16 -49 49 1 23 2 23 8 -5 5 -23 13
-31 36 -36z m90 51 c3 -6 -1 -7 -9 -4 -18 7 -21 14 -7 14 6 0 13 -4 16 -10z
m143 -2 c19 -19 15 -25 -18 -30 -18 -3 -30 0 -30 7 0 12 20 35 30 35 3 0 11
-5 18 -12z m50 1 c-25 -14 -22 -38 5 -49 17 -8 18 -9 3 -7 -28 3 -43 32 -27
51 8 9 19 16 25 16 6 0 3 -5 -6 -11z m110 0 c-10 -5 -18 -18 -19 -27 0 -11 -2
-12 -6 -4 -6 15 14 42 31 42 6 0 3 -5 -6 -11z m200 4 c-21 -5 -23 -19 -5 -26
9 -4 9 -6 0 -6 -15 -1 -26 16 -18 29 3 6 14 9 23 9 15 -1 15 -2 0 -6z m77 -3
c3 -5 0 -7 -8 -4 -8 3 -18 1 -22 -5 -3 -7 3 -11 17 -12 23 -1 23 -1 -2 -8 -29
-8 -38 3 -20 24 14 17 26 19 35 5z m83 -1 c-25 -14 -22 -38 5 -49 17 -8 18 -9
3 -7 -28 3 -43 32 -27 51 8 9 19 16 25 16 6 0 3 -5 -6 -11z m87 1 c3 -6 -1 -7
-9 -4 -18 7 -21 14 -7 14 6 0 13 -4 16 -10z m75 0 c12 -8 10 -10 -10 -8 -20 3
-25 -3 -31 -27 l-7 -30 -1 32 c-1 27 8 39 29 42 3 0 12 -4 20 -9z m88 -1 c-10
-5 -18 -18 -19 -27 0 -11 -2 -12 -6 -4 -6 15 14 42 31 42 6 0 3 -5 -6 -11z
m232 4 c0 -5 -7 -17 -16 -28 -13 -18 -13 -20 3 -27 14 -5 11 -7 -10 -7 -24 -1
-26 1 -17 18 5 11 16 23 22 28 9 5 5 9 -12 14 l-25 7 28 1 c15 1 27 -2 27 -6z
m194 -9 c14 -37 7 -54 -24 -54 -35 0 -43 29 -10 37 25 7 26 20 3 26 -14 4 -13
5 3 6 12 0 25 -6 28 -15z m79 -41 c7 2 15 17 18 33 6 27 7 26 8 -9 1 -36 -1
-38 -26 -35 -30 3 -41 27 -27 56 6 13 9 9 12 -16 2 -20 8 -32 15 -29z m91 48
c3 -5 -2 -8 -12 -7 -28 2 -28 -41 0 -47 21 -5 21 -5 -2 -4 -25 2 -37 25 -26
53 6 16 32 19 40 5z m71 -26 c0 -25 -4 -30 -25 -30 -16 0 -26 6 -28 18 -6 30
6 49 30 45 18 -2 23 -9 23 -33z m-1600 -25 c8 0 19 8 24 18 6 9 11 12 11 6 0
-18 -28 -37 -45 -30 -9 3 -14 17 -14 33 l2 28 4 -27 c2 -16 11 -28 18 -28z
m57 20 c-2 -16 -6 -30 -8 -30 -2 0 -4 14 -4 30 0 17 4 30 8 30 5 0 7 -13 4
-30z m343 -20 c8 0 16 12 18 28 4 25 4 25 6 -5 1 -29 -2 -33 -24 -33 -22 0
-25 4 -24 33 2 30 2 30 6 5 2 -16 10 -28 18 -28z m-298 3 c-3 -10 -5 -4 -5 12
0 17 2 24 5 18 2 -7 2 -21 0 -30z m249 2 c-3 -8 -13 -14 -23 -14 -17 1 -17 2
0 6 9 2 17 14 18 26 0 12 3 16 6 9 3 -7 2 -19 -1 -27z m610 0 c-3 -8 -13 -14
-23 -14 -17 1 -17 2 0 6 9 2 17 14 18 26 0 12 3 16 6 9 3 -7 2 -19 -1 -27z
m681 3 c-3 -7 -5 -2 -5 12 0 14 2 19 5 13 2 -7 2 -19 0 -25z m-1170 16 c-3 -3
-12 -4 -19 -1 -8 3 -5 6 6 6 11 1 17 -2 13 -5z m1206 -14 c-3 -11 -7 -20 -9
-20 -2 0 -4 9 -4 20 0 11 4 20 9 20 5 0 7 -9 4 -20z m-1140 -11 c-6 -6 -19 -9
-29 -6 -16 4 -15 5 4 6 12 0 22 6 22 13 0 6 3 8 7 5 4 -4 2 -12 -4 -18z m230
-1 c-2 -5 -10 -8 -18 -8 -8 0 -16 3 -18 8 -3 4 5 7 18 7 13 0 21 -3 18 -7z
m-610 -5 c-7 -2 -19 -2 -25 0 -7 3 -2 5 12 5 14 0 19 -2 13 -5z m440 0 c-7 -2
-19 -2 -25 0 -7 3 -2 5 12 5 14 0 19 -2 13 -5z m-133 -547 c0 -3 -4 -8 -10
-11 -5 -3 -10 -1 -10 4 0 6 5 11 10 11 6 0 10 -2 10 -4z m-855 -26 c3 -5 -1
-10 -9 -10 -22 0 -20 -13 4 -28 25 -15 15 -42 -16 -42 -27 0 -33 20 -6 20 16
1 16 1 0 14 -18 13 -23 37 -11 49 10 10 31 8 38 -3z m70 0 c3 -5 -1 -10 -9
-10 -23 0 -19 -17 5 -23 31 -8 21 -41 -14 -45 -15 -2 -27 1 -27 7 0 6 10 11
23 12 l22 0 -22 11 c-35 17 -29 53 9 57 4 1 10 -3 13 -9z m84 0 c25 -13 33
-37 21 -61 -12 -21 -50 -25 -68 -7 -18 18 -15 55 6 67 21 13 20 13 41 1z m902
0 c22 -13 25 -52 5 -70 -8 -6 -25 -10 -38 -8 -30 4 -38 56 -12 75 21 16 20 16
45 3z m274 0 c3 -5 -1 -10 -9 -10 -22 0 -20 -13 4 -28 25 -15 15 -42 -16 -42
-27 0 -33 20 -6 20 16 1 16 1 0 14 -18 13 -23 37 -11 49 10 10 31 8 38 -3z
m336 0 c22 -13 25 -52 5 -70 -8 -6 -25 -10 -38 -8 -30 4 -38 56 -12 75 21 16
20 16 45 3z m400 0 c22 -13 25 -52 5 -70 -8 -6 -25 -10 -38 -8 -30 4 -38 56
-12 75 21 16 20 16 45 3z m398 0 c25 -13 33 -37 21 -61 -12 -21 -50 -25 -68
-7 -18 18 -15 55 6 67 21 13 20 13 41 1z m280 0 c25 -13 33 -37 21 -61 -12
-21 -50 -25 -68 -7 -18 18 -15 55 6 67 21 13 20 13 41 1z m386 0 c3 -5 -1 -10
-9 -10 -23 0 -19 -17 5 -23 31 -8 21 -41 -14 -45 -15 -2 -27 1 -27 7 0 6 10
11 23 12 l22 0 -22 11 c-35 17 -29 53 9 57 4 1 10 -3 13 -9z m119 4 c23 -9 19
-21 -6 -20 -17 1 -24 -5 -26 -21 -3 -19 1 -23 22 -23 14 0 26 -5 26 -11 0 -6
-14 -9 -32 -7 -28 3 -33 7 -36 33 -3 19 2 33 14 42 21 15 18 15 38 7z m-3314
-44 c0 -22 -4 -40 -10 -40 -5 0 -10 18 -10 40 0 22 5 40 10 40 6 0 10 -18 10
-40z m350 15 c0 -18 -5 -25 -20 -25 -11 0 -20 -7 -20 -15 0 -8 -4 -15 -10 -15
-5 0 -10 18 -10 40 0 38 2 40 30 40 25 0 30 -4 30 -25z m63 18 c-27 -5 -31
-22 -5 -24 16 -1 16 -2 0 -6 -22 -5 -24 -23 -4 -23 8 0 18 -4 21 -10 4 -6 -7
-10 -24 -10 -29 0 -31 2 -31 40 0 39 1 40 33 39 23 -1 26 -3 10 -6z m92 -3 c4
-6 1 -17 -5 -25 -10 -12 -10 -18 0 -30 10 -12 10 -15 -3 -15 -9 0 -21 8 -26
18 -10 16 -10 16 -11 0 0 -10 -4 -18 -10 -18 -5 0 -10 18 -10 40 0 38 2 40 29
40 17 0 33 -5 36 -10z m55 -12 l9 -23 7 23 c11 37 38 23 42 -21 2 -21 -1 -37
-7 -37 -6 0 -11 12 -12 28 l-1 27 -10 -27 c-12 -34 -26 -36 -38 -5 l-9 22 0
-22 c-1 -41 -21 -24 -21 17 0 46 24 56 40 18z m100 -18 c0 -22 -4 -40 -10 -40
-5 0 -10 18 -10 40 0 22 5 40 10 40 6 0 10 -18 10 -40z m68 29 c-11 -6 -18
-22 -18 -39 0 -17 -4 -30 -10 -30 -5 0 -10 15 -10 34 0 19 -6 37 -12 39 -7 3
5 6 27 6 32 0 36 -2 23 -10z m42 -29 c0 -22 -4 -40 -10 -40 -5 0 -10 18 -10
40 0 22 5 40 10 40 6 0 10 -18 10 -40z m80 20 c0 -11 -5 -20 -10 -20 -7 0 -7
-6 0 -20 12 -22 1 -27 -18 -8 -9 9 -12 9 -12 0 0 -7 -4 -12 -10 -12 -5 0 -10
18 -10 40 0 38 2 40 30 40 23 0 30 -4 30 -20z m78 -17 c12 -39 7 -58 -8 -33
-8 12 -13 13 -30 3 -28 -18 -28 -18 -17 27 14 52 40 53 55 3z m110 0 c12 -39
7 -58 -8 -33 -8 12 -13 13 -30 3 -28 -18 -28 -18 -17 27 14 52 40 53 55 3z
m220 9 c5 -30 -14 -52 -44 -52 -21 0 -24 5 -24 41 0 39 1 40 33 37 25 -2 33
-8 35 -26z m60 21 c-10 -2 -18 -9 -18 -14 0 -5 8 -10 18 -10 16 -1 16 -2 0 -6
-22 -5 -24 -23 -3 -23 8 0 15 -4 15 -10 0 -5 -11 -10 -25 -10 -22 0 -25 4 -25
40 0 37 2 40 28 39 16 -1 20 -3 10 -6z m145 0 c-27 -5 -31 -22 -5 -24 16 -1
16 -2 0 -6 -24 -6 -23 -23 2 -23 11 0 20 -4 20 -10 0 -5 -13 -10 -30 -10 -28
0 -30 2 -30 40 0 39 1 40 33 39 23 -1 26 -3 10 -6z m70 -15 l16 -23 0 23 c1
40 21 23 21 -18 0 -48 -20 -54 -40 -12 l-14 27 -4 -27 c-5 -43 -22 -33 -22 12
0 46 18 53 43 18z m78 -5 l11 -28 10 28 c5 15 14 27 20 27 6 0 7 -7 4 -16 -3
-9 -9 -27 -12 -40 -9 -36 -35 -26 -50 19 -15 43 1 52 17 10z m179 -3 c0 -20 5
-30 15 -30 8 0 15 -4 15 -10 0 -5 -11 -10 -25 -10 -22 0 -25 4 -25 40 0 22 5
40 10 40 6 0 10 -13 10 -30z m58 3 l10 -28 11 28 c16 41 32 33 17 -10 -17 -49
-33 -52 -51 -9 -18 41 -18 46 -6 46 5 0 14 -12 19 -27z m105 20 c-27 -5 -31
-22 -5 -24 16 -1 16 -2 0 -6 -24 -6 -23 -23 2 -23 11 0 20 -4 20 -10 0 -5 -13
-10 -30 -10 -28 0 -30 2 -30 40 0 39 1 40 33 39 23 -1 26 -3 10 -6z m97 -8
c22 -26 -3 -65 -40 -65 -28 0 -30 2 -30 40 0 37 2 40 29 40 16 0 34 -7 41 -15z
m177 -25 c-1 -43 -10 -50 -26 -22 -10 16 -10 16 -11 0 0 -10 -4 -18 -10 -18
-5 0 -10 18 -10 40 0 38 2 40 29 40 28 0 30 -2 28 -40z m121 6 c4 -31 -10 -46
-45 -46 -20 0 -23 5 -23 41 0 39 1 40 33 37 27 -3 33 -7 35 -32z m65 27 c-27
-5 -31 -22 -5 -24 16 -1 16 -2 0 -6 -24 -6 -23 -23 2 -23 11 0 20 -4 20 -10 0
-5 -13 -10 -30 -10 -28 0 -30 2 -30 40 0 39 1 40 33 39 23 -1 26 -3 10 -6z
m211 -5 c-4 -7 -14 -21 -22 -30 -14 -16 -13 -18 6 -18 12 0 22 -4 22 -10 0 -5
-16 -10 -35 -10 -41 0 -42 3 -14 38 l21 27 -24 6 c-18 6 -15 7 15 8 28 1 36
-2 31 -11z m111 -28 c0 -32 -3 -35 -32 -38 -32 -3 -33 -3 -33 38 0 40 1 41 32
38 29 -3 32 -6 33 -38z m163 29 c-11 -6 -18 -22 -18 -39 0 -17 -4 -30 -10 -30
-5 0 -10 15 -10 34 0 19 -6 37 -12 39 -7 3 5 6 27 6 32 0 36 -2 23 -10z m88
-11 l7 -23 8 23 c14 37 36 27 41 -18 4 -43 -6 -54 -18 -18 l-7 23 -8 -23 c-11
-30 -23 -28 -36 6 l-11 27 -1 -27 c-1 -16 -6 -28 -12 -28 -7 0 -9 9 -5 23 3
12 6 30 6 40 0 25 27 21 36 -5z m94 -8 c0 -20 5 -30 15 -30 10 0 15 10 15 30
0 17 5 30 11 30 6 0 9 -16 7 -37 -2 -31 -7 -39 -27 -41 -13 -2 -28 2 -32 10
-12 18 -11 68 1 68 6 0 10 -13 10 -30z m160 -10 c0 -22 -4 -40 -10 -40 -5 0
-10 18 -10 40 0 22 5 40 10 40 6 0 10 -18 10 -40z m164 2 c8 -30 -1 -62 -11
-34 -3 6 -11 12 -18 12 -7 0 -15 -6 -18 -12 -2 -7 -8 -10 -12 -6 -4 4 -2 23 5
43 15 45 40 44 54 -3z m-3283 -122 c38 -21 18 -80 -28 -80 -53 0 -49 76 5 89
2 1 12 -4 23 -9z m-81 -25 c0 -18 -5 -25 -20 -25 -11 0 -20 -7 -20 -15 0 -8
-4 -15 -10 -15 -5 0 -10 18 -10 40 0 38 2 40 30 40 25 0 30 -4 30 -25z m180
10 c22 -26 -3 -65 -40 -65 -28 0 -30 2 -30 40 0 37 2 40 29 40 16 0 34 -7 41
-15z m60 3 l-25 -11 25 -6 25 -7 -25 -8 c-25 -8 -25 -9 -2 -13 32 -6 27 -23
-8 -23 -28 0 -30 2 -30 40 0 39 1 40 33 39 32 0 32 0 7 -11z m100 -8 c0 -11
-5 -20 -10 -20 -7 0 -7 -6 0 -20 12 -22 1 -27 -18 -8 -9 9 -12 9 -12 0 0 -7
-4 -12 -10 -12 -5 0 -10 18 -10 40 0 38 2 40 30 40 23 0 30 -4 30 -20z m30
-10 c0 -5 -4 -10 -10 -10 -5 0 -10 5 -10 10 0 6 5 10 10 10 6 0 10 -4 10 -10z
m0 -40 c0 -5 -4 -10 -10 -10 -5 0 -10 5 -10 10 0 6 5 10 10 10 6 0 10 -4 10
-10z m-250 -239 c50 -36 57 -124 14 -172 -26 -29 -79 -40 -121 -26 -101 34
-102 179 -2 214 39 13 74 8 109 -16z m1070 -82 l0 -60 -32 3 c-29 3 -33 6 -33
33 0 21 6 33 22 40 12 5 24 17 26 27 10 36 17 17 17 -43z m1090 1 c0 -60 0
-60 -30 -60 -23 0 -31 5 -36 25 -7 27 9 55 31 55 7 0 15 9 18 20 10 37 17 20
17 -40z m-1900 39 c0 -5 -5 -7 -10 -4 -22 13 -50 -6 -50 -34 0 -33 20 -54 44
-45 9 3 16 1 16 -5 0 -15 -53 -14 -68 1 -16 16 -16 70 0 86 15 15 68 16 68 1z
m100 1 c0 -5 -4 -10 -10 -10 -5 0 -10 5 -10 10 0 6 5 10 10 10 6 0 10 -4 10
-10z m1720 0 c0 -5 -4 -10 -10 -10 -5 0 -10 5 -10 10 0 6 5 10 10 10 6 0 10
-4 10 -10z m-1760 -32 c0 -4 -4 -10 -10 -13 -5 -3 -10 -17 -10 -31 0 -13 -4
-24 -10 -24 -5 0 -10 17 -10 38 0 31 4 38 20 38 11 0 20 -4 20 -8z m40 -28 c0
-22 -4 -40 -10 -40 -5 0 -10 18 -10 40 0 22 5 40 10 40 6 0 10 -18 10 -40z
m78 -3 c3 -38 3 -38 -30 -35 -40 4 -44 27 -8 45 l25 13 -23 0 c-14 0 -21 4
-17 11 4 5 17 9 28 7 18 -2 23 -11 25 -41z m62 31 c0 -4 -4 -8 -10 -8 -5 0
-10 -13 -10 -30 0 -16 -4 -30 -10 -30 -5 0 -10 17 -10 38 0 31 4 38 20 38 11
0 20 -4 20 -8z m105 2 c3 -5 -3 -10 -14 -10 -24 0 -33 -13 -25 -35 4 -10 14
-15 25 -12 11 3 19 1 19 -5 0 -5 -12 -8 -27 -6 -22 2 -29 9 -31 32 -5 37 36
64 53 36z m75 -4 c6 -8 10 -25 8 -38 -2 -18 -9 -23 -33 -23 -24 0 -31 5 -33
23 -4 25 13 52 33 52 7 0 18 -7 25 -14z m138 -28 c2 -22 -1 -38 -7 -38 -6 0
-11 14 -11 31 0 39 -22 34 -31 -7 l-7 -29 -1 33 c-1 43 -31 45 -31 2 0 -16 -4
-30 -10 -30 -5 0 -10 17 -10 38 l0 39 53 -1 52 -1 3 -37z m80 -1 c3 -38 3 -38
-30 -35 -40 4 -44 27 -8 45 l25 13 -23 0 c-14 0 -21 4 -17 11 4 5 17 9 28 7
18 -2 23 -11 25 -41z m78 -2 c1 -32 1 -34 -3 -7 -6 42 -33 44 -33 2 0 -16 -4
-30 -10 -30 -5 0 -10 17 -10 39 0 35 2 38 28 37 25 -1 27 -5 28 -41z m178 23
c8 -13 8 -23 0 -35 -16 -26 -51 -28 -64 -4 -25 47 36 83 64 39z m66 12 c0 -5
-8 -10 -17 -11 -14 0 -13 -3 5 -11 13 -6 21 -19 20 -27 -3 -17 -58 -29 -58
-13 0 6 9 8 20 5 11 -3 20 -1 20 5 0 6 -9 14 -20 17 -20 6 -26 25 -13 38 10
11 43 8 43 -3z m118 -17 c3 -19 -1 -23 -23 -23 -16 0 -24 -4 -19 -11 3 -6 15
-9 25 -6 11 3 19 1 19 -4 0 -5 -11 -9 -25 -9 -32 0 -50 32 -35 61 15 27 54 22
58 -8z m130 -15 c2 -22 -1 -38 -7 -38 -6 0 -11 14 -11 31 0 39 -22 34 -31 -7
l-7 -29 -1 33 c-1 43 -31 45 -31 2 0 -16 -4 -30 -10 -30 -5 0 -10 17 -10 38
l0 39 53 -1 52 -1 3 -37z m85 -25 c7 2 13 18 15 35 5 46 22 39 22 -9 0 -39 -1
-40 -32 -37 -26 2 -34 8 -36 26 -2 13 0 31 4 40 6 12 9 7 12 -21 2 -24 8 -37
15 -34z m165 25 c2 -22 -1 -38 -7 -38 -6 0 -11 14 -11 31 0 39 -22 34 -31 -7
l-7 -29 -1 33 c-1 43 -31 45 -31 2 0 -16 -4 -30 -10 -30 -5 0 -10 17 -10 38
l0 39 53 -1 52 -1 3 -37z m102 32 c0 -5 -8 -10 -17 -11 -14 0 -13 -3 5 -11 13
-6 21 -19 20 -27 -3 -17 -58 -29 -58 -13 0 6 9 8 20 5 11 -3 20 -1 20 5 0 6
-9 14 -20 17 -20 6 -26 25 -13 38 10 11 43 8 43 -3z m78 -2 c20 -20 14 -38
-14 -38 -15 0 -23 -4 -19 -10 4 -6 16 -8 27 -4 14 4 18 2 14 -5 -4 -6 -18 -11
-31 -11 -18 0 -26 7 -31 25 -10 42 26 71 54 43z m72 2 c0 -4 -6 -10 -14 -13
-8 -3 -16 -18 -19 -34 -3 -22 -4 -19 -6 12 -1 34 2 41 19 42 11 1 20 -2 20 -7z
m31 -17 l11 -28 13 30 c8 18 14 23 14 13 1 -24 -17 -68 -28 -68 -8 0 -31 52
-31 71 0 18 11 8 21 -18z m79 -13 c0 -22 -4 -40 -10 -40 -5 0 -10 18 -10 40 0
22 5 40 10 40 6 0 10 -18 10 -40z m160 26 c6 -8 10 -25 8 -38 -2 -18 -9 -23
-33 -23 -24 0 -31 5 -33 23 -4 25 13 52 33 52 7 0 18 -7 25 -14z m70 4 c0 -4
-6 -10 -14 -13 -8 -3 -16 -18 -19 -34 -3 -22 -4 -19 -6 12 -1 34 2 41 19 42
11 1 20 -2 20 -7z m-2352 -377 c37 35 50 22 15 -15 l-27 -28 28 -29 c36 -38
15 -54 -23 -17 l-27 26 -24 -25 c-12 -13 -27 -22 -32 -18 -6 3 2 17 16 31 l26
26 -26 27 c-37 38 -21 59 17 23 l29 -28 28 27z m302 8 c0 -4 -11 -6 -24 -4
-18 4 -27 -1 -36 -17 -16 -29 2 -70 29 -70 28 0 37 21 16 37 -18 12 -18 13 4
13 18 0 22 -5 19 -27 -3 -25 -7 -28 -38 -28 -29 0 -36 5 -44 27 -15 42 6 78
44 78 16 0 30 -4 30 -9z m1290 -1 c0 -5 -2 -10 -4 -10 -3 0 -8 5 -11 10 -3 6
-1 10 4 10 6 0 11 -4 11 -10z m-1220 -32 c0 -4 -4 -8 -10 -8 -5 0 -10 -13 -10
-30 0 -16 -4 -30 -10 -30 -5 0 -10 17 -10 38 0 31 4 38 20 38 11 0 20 -4 20
-8z m68 -30 c3 -37 2 -38 -28 -38 -24 0 -31 4 -28 17 2 10 14 23 26 29 15 7
20 14 13 18 -6 4 -15 4 -21 1 -5 -3 -10 -1 -10 5 0 6 10 10 23 8 18 -2 23 -10
25 -40z m61 16 c7 16 14 26 17 23 7 -7 -17 -77 -26 -77 -10 0 -30 48 -29 68 0
10 6 5 14 -13 l13 -30 11 29z m89 -16 c3 -37 2 -38 -28 -38 -24 0 -31 4 -28
17 2 10 14 23 26 29 15 7 20 14 13 18 -6 4 -15 4 -21 1 -5 -3 -10 -1 -10 5 0
6 10 10 23 8 18 -2 23 -10 25 -40z m62 30 c0 -4 -4 -8 -10 -8 -5 0 -10 -13
-10 -30 0 -16 -4 -30 -10 -30 -5 0 -10 17 -10 38 0 31 4 38 20 38 11 0 20 -4
20 -8z m86 -58 c9 0 14 11 14 35 0 19 5 35 10 35 6 0 10 -18 10 -41 0 -39 -1
-40 -32 -37 -26 2 -34 8 -36 26 -2 13 0 31 4 40 6 12 9 7 12 -20 2 -25 8 -38
18 -38z m156 56 c11 -16 10 -66 -2 -66 -5 0 -10 16 -10 36 0 45 -24 42 -28 -4
-4 -43 -22 -41 -22 3 0 44 -27 38 -33 -8 -3 -28 -4 -27 -5 9 l-2 40 48 1 c26
0 50 -5 54 -11z m126 -29 c2 -21 -1 -37 -7 -37 -6 0 -11 16 -11 36 0 45 -24
42 -28 -4 -4 -43 -22 -41 -22 2 0 24 5 36 18 39 36 10 47 2 50 -36z m82 23
c15 -28 -4 -62 -33 -58 -22 3 -34 35 -23 64 8 21 44 17 56 -6z m36 -12 l7 -33
14 34 c8 18 16 31 18 29 8 -8 -19 -78 -28 -75 -13 4 -39 77 -27 77 5 0 12 -15
16 -32z m114 18 c20 -26 8 -61 -22 -64 -22 -3 -29 2 -34 22 -11 44 29 74 56
42z m98 0 c-10 -7 -18 -25 -18 -40 0 -14 -4 -26 -10 -26 -5 0 -10 15 -10 34 0
24 5 36 18 39 32 8 37 6 20 -7z m72 -6 c10 -18 8 -20 -19 -20 -22 0 -29 -4
-25 -14 3 -8 15 -17 27 -19 18 -3 17 -5 -5 -6 -22 -1 -29 4 -34 24 -11 46 35
75 56 35z m128 7 c14 -10 16 -67 2 -67 -5 0 -10 16 -10 36 0 45 -24 42 -28 -4
-4 -44 -22 -40 -22 4 0 45 -24 42 -28 -4 -4 -43 -22 -41 -22 2 0 25 5 36 18
39 26 6 75 3 90 -6z m39 -49 c-2 -13 -4 -3 -4 22 0 25 2 35 4 23 2 -13 2 -33
0 -45z m67 50 c17 16 18 16 7 -5 -8 -17 -9 -29 -1 -43 6 -12 7 -20 1 -20 -5 0
-11 6 -14 13 -3 9 -7 9 -20 -2 -19 -15 -23 -1 -5 17 9 9 9 15 0 24 -7 7 -12
17 -12 23 0 5 6 2 14 -7 12 -16 14 -16 30 0z m-1517 -594 c2 -6 -7 -10 -19
-10 -32 1 -32 -38 0 -42 29 -4 29 -22 -1 -22 -29 0 -47 18 -47 47 0 34 57 58
67 27z m112 6 c25 -13 33 -37 21 -61 -12 -21 -50 -25 -68 -7 -18 18 -15 55 6
67 21 13 20 13 41 1z m472 0 c22 -13 25 -52 5 -70 -8 -6 -25 -10 -38 -8 -30 4
-38 56 -12 75 21 16 20 16 45 3z m114 0 c3 -5 -1 -10 -9 -10 -22 0 -20 -13 4
-28 25 -15 15 -42 -16 -42 -27 0 -33 20 -6 20 16 1 16 1 0 14 -18 13 -23 37
-11 49 10 10 31 8 38 -3z m444 0 c25 -13 33 -37 21 -61 -12 -21 -50 -25 -68
-7 -18 18 -15 55 6 67 21 13 20 13 41 1z m-1359 -36 c12 -37 6 -59 -10 -34 -8
12 -13 13 -30 3 -11 -7 -22 -13 -25 -13 -4 0 -4 3 14 53 14 38 37 34 51 -9z
m96 11 c8 -31 -10 -55 -42 -55 -21 0 -24 5 -24 40 0 38 2 40 30 40 23 0 31 -5
36 -25z m34 -15 c0 -22 -4 -40 -10 -40 -5 0 -10 18 -10 40 0 22 5 40 10 40 6
0 10 -18 10 -40z m120 0 c0 -22 -4 -40 -10 -40 -5 0 -10 18 -10 40 0 22 5 40
10 40 6 0 10 -18 10 -40z m163 18 l16 -23 0 23 c1 40 21 23 21 -18 0 -48 -22
-54 -44 -12 l-15 27 -1 -27 c0 -16 -4 -28 -10 -28 -5 0 -10 18 -10 40 0 46 18
53 43 18z m111 -16 c8 -30 -1 -62 -11 -34 -3 6 -11 12 -18 12 -7 0 -15 -6 -18
-12 -2 -7 -8 -10 -12 -6 -4 4 -2 23 5 43 15 45 40 44 54 -3z m83 -2 c-1 -43
-10 -50 -26 -22 -10 16 -10 16 -11 0 0 -10 -4 -18 -10 -18 -5 0 -10 18 -10 40
0 38 2 40 29 40 28 0 30 -2 28 -40z m111 3 c12 -39 7 -58 -8 -33 -8 12 -13 13
-30 3 -28 -18 -28 -18 -17 27 14 52 40 53 55 3z m265 30 c-27 -5 -31 -22 -5
-24 16 -1 16 -2 0 -6 -24 -6 -23 -23 2 -23 11 0 20 -4 20 -10 0 -5 -13 -10
-30 -10 -28 0 -30 2 -30 40 0 39 1 40 33 39 23 -1 26 -3 10 -6z m92 -3 c4 -6
1 -17 -5 -25 -10 -12 -10 -18 0 -30 10 -12 10 -15 -3 -15 -9 0 -21 8 -26 18
-10 16 -10 16 -11 0 0 -10 -4 -18 -10 -18 -5 0 -10 18 -10 40 0 38 2 40 29 40
17 0 33 -5 36 -10z m40 -17 l7 -28 10 28 c5 15 14 27 20 27 6 0 7 -7 4 -16 -3
-9 -9 -27 -12 -40 -9 -34 -30 -30 -43 7 -13 39 -14 49 -2 49 5 0 12 -12 16
-27z m85 -13 c0 -22 -4 -40 -10 -40 -5 0 -10 18 -10 40 0 22 5 40 10 40 6 0
10 -18 10 -40z m86 15 c8 -31 -10 -55 -42 -55 -21 0 -24 5 -24 40 0 38 2 40
30 40 23 0 31 -5 36 -25z m179 15 c4 -6 1 -17 -5 -25 -10 -12 -10 -18 0 -30
10 -12 10 -15 -3 -15 -9 0 -21 8 -26 18 -10 16 -10 16 -11 0 0 -10 -4 -18 -10
-18 -5 0 -10 18 -10 40 0 38 2 40 29 40 17 0 33 -5 36 -10z m35 -20 c0 -5 -4
-10 -10 -10 -5 0 -10 5 -10 10 0 6 5 10 10 10 6 0 10 -4 10 -10z m0 -40 c0 -5
-4 -10 -10 -10 -5 0 -10 5 -10 10 0 6 5 10 10 10 6 0 10 -4 10 -10z m1895
-270 l22 -20 18 20 c10 11 23 20 29 20 5 0 -5 -16 -24 -35 l-34 -35 -28 27
c-15 15 -28 30 -28 35 0 15 23 8 45 -12z m-2205 -415 c10 0 16 -11 17 -30 2
-25 1 -26 -5 -7 -4 13 -11 23 -17 23 -5 0 -13 -10 -17 -23 -4 -15 -6 -5 -6 27
0 29 3 42 6 30 4 -11 14 -20 22 -20z m-1243 -37 c-2 -13 -4 -3 -4 22 0 25 2
35 4 23 2 -13 2 -33 0 -45z m1000 56 c-3 -3 -12 -4 -19 -1 -8 3 -5 6 6 6 11 1
17 -2 13 -5z m67 -38 c1 -20 -2 -36 -5 -36 -8 0 -17 52 -11 69 7 20 14 5 16
-33z m819 37 c-7 -2 -19 -2 -25 0 -7 3 -2 5 12 5 14 0 19 -2 13 -5z m167 -33
c0 -36 -3 -40 -24 -40 -34 0 -42 29 -14 56 32 32 38 30 38 -16z m900 0 c0 -36
-3 -40 -24 -40 -34 0 -42 29 -14 56 32 32 38 30 38 -16z m344 -10 c1 -16 -2
-30 -5 -30 -8 0 -17 58 -11 65 9 9 15 -4 16 -35z m-3249 20 c-18 -7 -19 -8 -2
-15 25 -10 21 -35 -5 -34 -21 0 -22 1 -3 8 18 7 18 8 1 18 -21 12 -13 33 12
32 14 0 13 -2 -3 -9z m50 0 c-18 -7 -19 -8 -2 -15 25 -10 21 -35 -5 -34 -21 0
-22 1 -3 8 18 7 18 8 1 18 -21 12 -13 33 12 32 14 0 13 -2 -3 -9z m74 -4 c15
-18 3 -46 -19 -46 -10 0 -21 7 -24 16 -6 16 9 44 24 44 4 0 13 -6 19 -14z m72
0 c-5 -6 -11 -20 -14 -31 -3 -14 -5 -10 -6 11 -1 21 4 31 14 31 9 0 11 -4 6
-11z m57 -4 c2 -7 -3 -12 -12 -12 -22 0 -20 -17 2 -23 13 -4 12 -5 -4 -6 -26
-1 -39 26 -23 46 13 15 31 13 37 -5z m61 -24 c0 -24 -3 -37 -6 -30 -2 6 -11
12 -18 12 -18 0 -28 30 -14 46 23 28 39 16 38 -28z m44 -5 c6 2 14 14 18 28 6
21 7 20 8 -9 1 -29 -2 -33 -21 -30 -17 2 -23 10 -24 28 -1 23 -1 23 3 2 3 -13
10 -21 16 -19z m85 30 c2 -8 -5 -13 -17 -13 -28 0 -27 -17 2 -23 l22 -4 -23
-2 c-25 -1 -38 20 -28 45 7 18 37 15 44 -3z m42 11 c0 -1 -7 -15 -15 -30 l-15
-29 0 31 c0 21 5 31 15 31 8 0 15 -1 15 -3z m90 -36 c0 -24 -4 -38 -8 -32 -4
6 -15 13 -24 17 -21 7 -24 43 -5 50 30 13 37 6 37 -35z m41 -8 c5 0 9 12 9 26
0 14 4 23 10 19 6 -3 10 -17 10 -31 0 -19 -5 -24 -25 -24 -22 0 -25 4 -24 33
2 30 2 30 6 5 2 -16 9 -28 14 -28z m87 33 c2 -8 -5 -13 -17 -13 -28 0 -27 -17
2 -23 l22 -4 -23 -2 c-25 -1 -38 20 -28 45 7 18 37 15 44 -3z m52 -11 c1 -13
5 -10 16 8 l15 25 -7 -25 c-10 -40 -21 -44 -32 -10 -7 18 -7 28 -2 25 6 -4 10
-14 10 -23z m85 -2 c0 -16 -6 -26 -18 -28 -19 -4 -32 20 -23 44 9 25 41 13 41
-16z m53 23 c-10 -2 -18 -13 -18 -23 0 -10 8 -21 18 -23 13 -4 12 -5 -4 -6
-12 0 -25 6 -28 15 -8 20 11 44 33 43 13 -1 13 -2 -1 -6z m70 -10 c2 -8 -5
-13 -17 -13 -28 0 -27 -17 2 -23 l22 -4 -23 -2 c-25 -1 -38 20 -28 45 7 18 37
15 44 -3z m120 -1 c2 -7 -3 -12 -12 -12 -22 0 -20 -17 2 -23 13 -4 12 -5 -4
-6 -26 -1 -39 26 -23 46 13 15 31 13 37 -5z m29 -29 c-3 -10 -5 -2 -5 17 0 19
2 27 5 18 2 -10 2 -26 0 -35z m33 17 c0 -16 -2 -30 -4 -30 -2 0 -6 14 -8 30
-3 17 -1 30 4 30 4 0 8 -13 8 -30z m128 -3 c3 -23 0 -27 -22 -27 -30 0 -36 24
-9 34 15 6 15 8 3 17 -12 8 -11 9 5 7 13 -2 21 -12 23 -31z m82 3 c0 -23 -4
-30 -20 -30 -13 0 -20 6 -19 18 0 10 3 12 6 5 2 -7 9 -13 14 -13 15 0 6 34
-11 42 -11 5 -9 7 8 7 18 1 22 -4 22 -29z m94 15 c7 -20 -3 -45 -19 -45 -7 0
-16 -6 -18 -12 -3 -7 -6 6 -6 30 -1 35 2 42 18 42 10 0 21 -7 25 -15z m64 -2
c2 -8 -5 -13 -17 -13 -28 0 -27 -17 2 -23 l22 -4 -23 -2 c-25 -1 -38 20 -28
45 7 18 37 15 44 -3z m33 3 c-5 -6 -11 -20 -14 -31 -3 -14 -5 -10 -6 11 -1 21
4 31 14 31 9 0 11 -4 6 -11z m101 -1 c11 -15 10 -45 -2 -45 -5 0 -10 12 -10
27 0 29 -15 22 -23 -12 -3 -15 -5 -13 -6 8 -1 34 -22 32 -32 -4 -6 -22 -7 -22
-8 7 -1 29 1 30 37 30 20 0 40 -5 44 -11z m25 -32 c-3 -10 -5 -2 -5 17 0 19 2
27 5 18 2 -10 2 -26 0 -35z m44 38 c-11 -7 -10 -11 4 -19 21 -11 12 -32 -13
-31 -14 0 -13 2 3 9 18 7 19 8 3 15 -10 4 -18 13 -18 21 0 8 8 14 18 14 13 0
14 -2 3 -9z m54 -1 c-18 -7 -19 -8 -2 -15 25 -10 21 -35 -5 -34 -21 0 -22 1
-3 8 18 7 18 8 1 18 -21 12 -13 33 12 32 14 0 13 -2 -3 -9z m73 -23 c3 -21 -1
-27 -17 -27 -24 0 -36 16 -20 26 8 4 9 3 5 -4 -4 -7 -1 -12 9 -12 20 0 16 32
-5 42 -11 6 -10 7 5 5 14 -1 21 -11 23 -30z m61 19 c15 -18 3 -46 -19 -46 -10
0 -21 7 -24 16 -6 16 9 44 24 44 4 0 13 -6 19 -14z m149 -4 c2 -7 -3 -12 -12
-12 -22 0 -20 -17 2 -23 13 -4 11 -5 -5 -6 -18 -1 -23 4 -23 22 0 36 27 50 38
19z m92 -1 c-5 -11 -15 -22 -22 -24 -7 -3 -2 -6 10 -6 32 -1 23 -25 -10 -29
-24 -3 -25 0 -23 30 2 18 4 36 4 41 1 4 12 7 26 7 22 0 24 -3 15 -19z m58 1
c2 -7 -3 -12 -12 -12 -22 0 -20 -17 2 -23 13 -4 12 -5 -4 -6 -26 -1 -39 26
-23 46 13 15 31 13 37 -5z m52 6 c0 -4 -4 -8 -9 -8 -5 0 -12 -10 -14 -22 -3
-18 -5 -16 -6 8 -1 21 4 31 14 31 8 0 15 -4 15 -9z m54 -3 c4 -10 -1 -15 -14
-15 -25 0 -26 -17 -2 -23 13 -4 11 -5 -5 -6 -18 -1 -23 4 -23 22 0 37 32 53
44 22z m64 -17 c2 -16 -1 -28 -7 -28 -6 0 -11 12 -11 27 0 29 -15 22 -23 -12
-3 -13 -5 -10 -6 11 -1 26 3 31 22 30 16 -1 23 -8 25 -28z m36 17 c-19 -15
-19 -15 0 -30 18 -13 18 -15 3 -15 -10 0 -20 7 -23 15 -9 22 3 45 23 45 15 0
15 -2 -3 -15z m43 -32 c-3 -10 -5 -2 -5 17 0 19 2 27 5 18 2 -10 2 -26 0 -35z
m63 17 c0 -23 -5 -30 -19 -30 -30 0 -34 17 -9 31 22 12 22 12 3 20 -19 7 -19
8 3 8 18 1 22 -4 22 -29z m50 18 c0 -4 -4 -8 -9 -8 -5 0 -12 -10 -14 -22 -3
-18 -5 -16 -6 8 -1 21 4 31 14 31 8 0 15 -4 15 -9z m65 2 c-18 -7 -19 -8 -2
-15 25 -10 21 -35 -5 -34 -21 0 -21 1 -4 8 18 7 18 8 3 14 -25 10 -21 37 6 36
21 0 21 -1 2 -9z m73 -7 c2 -7 -3 -13 -12 -13 -22 0 -20 -17 2 -23 12 -4 11
-5 -6 -6 -25 -1 -38 20 -28 45 7 18 37 15 44 -3z m72 2 c0 -8 5 -15 10 -15 6
0 10 7 10 15 0 8 4 15 9 15 6 0 6 -12 0 -30 -13 -37 -26 -38 -35 -5 -7 30 -28
28 -32 -3 -5 -32 -22 -27 -22 6 0 24 4 28 30 30 21 2 30 -2 30 -13z m57 -32
c-3 -10 -5 -2 -5 17 0 19 2 27 5 18 2 -10 2 -26 0 -35z m128 17 c0 -16 -6 -26
-18 -28 -19 -4 -32 20 -23 44 9 25 41 13 41 -16z m46 17 c-6 -6 -11 -19 -11
-29 0 -10 -4 -18 -10 -18 -5 0 -10 13 -10 28 0 21 5 28 21 29 17 2 19 -1 10
-10z m56 -34 c-3 -10 -5 -2 -5 17 0 19 2 27 5 18 2 -10 2 -26 0 -35z m33 17
c0 -16 -2 -30 -4 -30 -2 0 -6 14 -8 30 -3 17 -1 30 4 30 4 0 8 -13 8 -30z m58
12 c2 -7 -3 -12 -12 -12 -22 0 -20 -17 2 -23 13 -4 11 -5 -5 -6 -18 -1 -23 4
-23 22 0 36 27 50 38 19z m43 9 c-11 -7 -10 -11 4 -19 21 -11 12 -32 -13 -31
-14 0 -13 2 3 9 18 7 19 8 3 15 -10 4 -18 13 -18 21 0 8 8 14 18 14 13 0 14
-2 3 -9z m117 -8 c2 -8 -5 -13 -17 -13 -28 0 -27 -17 2 -23 l22 -4 -23 -2
c-25 -1 -38 20 -28 45 7 18 37 15 44 -3z m-3078 -159 c0 -41 -2 -45 -22 -42
-31 4 -38 47 -9 55 12 3 21 12 21 19 0 8 2 14 5 14 3 0 5 -21 5 -46z m-269 7
c-11 -7 -10 -11 4 -19 21 -11 12 -32 -13 -31 -14 0 -13 2 3 9 18 7 19 8 3 15
-10 4 -18 13 -18 21 0 8 8 14 18 14 13 0 14 -2 3 -9z m77 -8 c2 -8 -5 -13 -17
-13 -28 0 -27 -17 2 -23 l22 -4 -23 -2 c-25 -1 -38 20 -28 45 7 18 37 15 44
-3z m33 3 c-5 -6 -11 -20 -14 -31 -3 -14 -5 -10 -6 11 -1 21 4 31 14 31 9 0
11 -4 6 -11z m49 -14 c0 9 4 19 10 23 5 3 5 -7 -2 -25 -11 -34 -22 -30 -32 10
l-7 25 15 -25 c11 -18 15 -21 16 -8z m37 -19 c-3 -10 -5 -2 -5 17 0 19 2 27 5
18 2 -10 2 -26 0 -35z m128 17 c0 -29 -32 -41 -41 -16 -9 24 4 48 23 44 12 -2
18 -12 18 -28z m46 16 c-5 -6 -11 -20 -14 -31 -3 -14 -5 -10 -6 11 -1 21 4 31
14 31 9 0 11 -4 6 -11z m-296 -686 c3 -5 9 -32 12 -60 l6 -50 -43 0 -43 0 7
52 c4 28 9 55 12 60 7 11 42 10 49 -2z m185 -14 c0 -2 7 -21 16 -42 11 -27 12
-35 3 -26 -7 6 -21 12 -30 12 -10 0 -20 -6 -22 -12 -4 -9 -6 -8 -6 2 0 8 4 22
9 30 6 10 10 11 10 3 0 -7 5 -13 10 -13 6 0 10 7 10 15 0 8 -4 15 -10 15 -5 0
-10 5 -10 10 0 6 5 10 10 10 6 0 10 -2 10 -4z m207 -58 c-2 -13 -4 -3 -4 22 0
25 2 35 4 23 2 -13 2 -33 0 -45z m303 22 c0 -33 -4 -40 -19 -40 -10 0 -22 8
-26 18 -5 14 -4 15 6 5 19 -19 29 -16 29 8 0 16 -4 20 -17 14 -15 -5 -15 -3 2
14 11 11 21 20 23 20 1 1 2 -17 2 -39z m490 0 c0 -34 -3 -40 -20 -40 -32 0
-36 28 -9 55 13 13 25 24 27 24 1 1 2 -17 2 -39z m130 0 c0 -36 -2 -40 -25
-40 -20 0 -25 5 -25 26 0 17 6 28 20 31 11 3 20 9 20 14 0 5 2 9 5 9 3 0 5
-18 5 -40z m760 -1 c0 -36 -2 -40 -22 -37 -31 4 -38 47 -9 55 12 3 21 9 21 14
0 5 2 9 5 9 3 0 5 -18 5 -41z m540 1 c0 -36 -2 -40 -25 -40 -20 0 -25 5 -25
26 0 17 6 28 20 31 11 3 20 9 20 14 0 5 2 9 5 9 3 0 5 -18 5 -40z m150 -1 c0
-36 -2 -40 -22 -37 -31 4 -38 47 -9 55 12 3 21 9 21 14 0 5 2 9 5 9 3 0 5 -18
5 -41z m377 -21 c-2 -13 -4 -3 -4 22 0 25 2 35 4 23 2 -13 2 -33 0 -45z m183
22 c0 -34 -3 -40 -20 -40 -32 0 -36 28 -9 55 13 13 25 24 27 24 1 1 2 -17 2
-39z m-2866 -10 c1 -16 -2 -30 -5 -30 -8 0 -17 58 -11 65 9 9 15 -4 16 -35z
m1200 1 c1 -16 -2 -27 -5 -25 -9 5 -17 52 -11 59 9 9 15 -4 16 -34z m-1378
-21 c17 0 18 21 2 39 -11 11 -10 13 2 9 23 -7 25 -47 3 -55 -10 -4 -21 -11
-25 -17 -4 -6 -7 9 -6 34 1 29 2 35 5 18 2 -16 11 -28 19 -28z m79 20 c0 -16
-6 -26 -18 -28 -19 -4 -32 20 -23 44 9 25 41 13 41 -16z m173 19 c-10 -5 -18
-16 -18 -24 0 -7 8 -16 18 -18 16 -4 16 -5 -1 -6 -10 0 -20 6 -23 14 -7 17 12
45 30 45 6 0 3 -5 -6 -11z m70 -22 c3 -23 0 -27 -20 -26 -17 1 -19 2 -5 6 18
5 19 32 2 46 -6 5 -4 7 5 4 8 -2 16 -16 18 -30z m156 18 c4 -10 -1 -15 -14
-15 -25 0 -26 -17 -2 -23 16 -4 16 -5 -1 -6 -20 -1 -32 21 -23 44 3 8 12 15
20 15 7 0 16 -7 20 -15z m90 0 c7 -20 -3 -45 -19 -45 -7 0 -16 -6 -18 -12 -3
-7 -5 5 -5 27 0 22 3 30 5 18 5 -24 18 -30 28 -13 4 6 1 17 -5 25 -7 9 -8 15
-2 15 5 0 12 -7 16 -15z m37 1 c-5 -6 -11 -20 -14 -31 -3 -14 -5 -10 -6 11 -1
21 4 31 14 31 9 0 11 -4 6 -11z m79 -17 c0 8 3 12 6 8 3 -3 1 -14 -4 -24 -10
-16 -12 -15 -21 10 -15 39 -13 47 4 17 8 -14 14 -19 15 -11z m68 -2 c3 -23 0
-27 -20 -26 -17 1 -19 2 -5 6 18 5 19 32 2 46 -6 5 -4 7 5 4 8 -2 16 -16 18
-30z m50 26 c-10 -2 -18 -13 -18 -23 0 -10 8 -21 18 -23 16 -4 16 -5 -1 -6
-20 -1 -32 21 -23 44 3 8 13 14 23 14 17 -1 17 -2 1 -6z m160 -26 c3 -23 0
-27 -20 -26 -17 1 -19 2 -5 6 18 5 19 32 2 46 -6 5 -4 7 5 4 8 -2 16 -16 18
-30z m126 18 c4 -10 -1 -15 -14 -15 -25 0 -26 -17 -2 -23 16 -4 16 -5 -1 -6
-20 -1 -32 21 -23 44 3 8 12 15 20 15 7 0 16 -7 20 -15z m84 -3 c2 -7 -3 -12
-12 -12 -22 0 -20 -17 2 -23 16 -4 16 -5 -1 -6 -20 -1 -32 22 -23 45 7 17 27
15 34 -4z m87 -13 c0 -15 -7 -25 -18 -27 -22 -4 -33 24 -17 43 18 21 35 13 35
-16z m43 17 c-7 -8 -15 -12 -17 -11 -5 6 10 25 20 25 5 0 4 -6 -3 -14z m140
-4 c2 -7 -3 -12 -12 -12 -22 0 -20 -17 2 -23 16 -4 16 -5 -1 -6 -20 -1 -32 22
-23 45 7 17 27 15 34 -4z m44 6 c-5 -7 -12 -22 -15 -33 -4 -16 -5 -14 -6 7 -1
22 7 33 28 37 2 1 -1 -5 -7 -11z m64 -21 c1 -26 1 -26 -3 -2 -5 31 -25 28 -34
-6 -6 -22 -7 -21 -8 7 -1 26 3 31 22 30 17 -1 22 -7 23 -29z m34 3 c0 -16 -2
-30 -4 -30 -2 0 -6 14 -8 30 -3 17 -1 30 4 30 4 0 8 -13 8 -30z m58 18 c7 -7
12 -17 12 -22 0 -6 -5 -3 -11 7 -13 23 -29 22 -29 -2 0 -11 8 -22 18 -24 16
-4 16 -5 -1 -6 -20 -1 -32 21 -23 44 7 18 18 19 34 3z m42 2 c-12 -8 -12 -10
3 -16 25 -9 21 -34 -5 -33 -21 0 -22 1 -3 8 18 7 18 8 1 18 -19 11 -14 33 7
33 7 0 6 -4 -3 -10z m167 -7 c2 -6 -6 -13 -19 -15 l-23 -5 25 -11 c24 -10 24
-11 3 -11 -25 -1 -34 17 -21 42 10 19 29 19 35 0z m63 7 c-12 -8 -12 -10 3
-16 25 -9 21 -34 -5 -33 -21 0 -22 1 -3 8 18 7 18 8 1 18 -19 11 -14 33 7 33
7 0 6 -4 -3 -10z m78 -8 c2 -7 -6 -12 -17 -12 -27 0 -27 -17 -1 -23 17 -4 17
-4 -2 -3 -32 2 -37 36 -6 36 19 0 20 2 8 11 -12 9 -12 10 -1 7 8 -3 17 -10 19
-16z m92 -22 c-16 -30 -22 -19 -7 13 6 14 13 22 15 17 2 -5 -2 -19 -8 -30z
m78 29 c-10 -5 -18 -16 -18 -24 0 -7 8 -16 18 -18 16 -4 16 -5 -1 -6 -10 0
-20 6 -23 14 -7 17 12 45 30 45 6 0 3 -5 -6 -11z m70 -1 c7 -7 12 -17 12 -22
0 -6 -5 -3 -11 7 -13 23 -29 22 -29 -2 0 -11 8 -22 18 -24 16 -4 16 -5 -1 -6
-20 -1 -32 21 -23 44 7 18 18 19 34 3z m157 -18 c0 -29 -32 -41 -41 -16 -9 24
4 48 23 44 12 -2 18 -12 18 -28z m152 13 c2 -6 -6 -13 -19 -15 l-23 -5 25 -11
c24 -10 24 -11 3 -11 -25 -1 -34 17 -21 42 10 19 29 19 35 0z m47 10 c-5 -5
-12 -12 -16 -18 -4 -6 -8 -2 -8 8 0 9 7 17 17 17 9 0 12 -3 7 -7z m64 -11 c2
-7 -3 -12 -12 -12 -22 0 -20 -17 2 -23 16 -4 16 -5 -1 -6 -20 -1 -32 22 -23
45 7 17 27 15 34 -4z m29 -29 c-3 -10 -5 -2 -5 17 0 19 2 27 5 18 2 -10 2 -26
0 -35z m33 37 c0 -5 -2 -10 -4 -10 -3 0 -8 5 -11 10 -3 6 -1 10 4 10 6 0 11
-4 11 -10z m119 -4 c6 -7 9 -21 5 -30 -8 -21 -40 -21 -48 0 -5 14 -4 15 9 4
11 -9 19 -10 27 -2 14 14 0 35 -19 28 -8 -3 -11 -1 -8 4 9 14 21 12 34 -4z
m81 -26 c-16 -30 -22 -19 -7 13 6 14 13 22 15 17 2 -5 -2 -19 -8 -30z m68 22
c2 -7 -6 -12 -17 -12 -27 0 -27 -17 -1 -23 17 -4 17 -4 -2 -3 -32 2 -37 36 -6
36 19 0 20 2 8 11 -12 9 -12 10 -1 7 8 -3 17 -10 19 -16z m120 6 c7 -7 12 -17
12 -22 0 -6 -5 -3 -11 7 -13 23 -29 22 -29 -2 0 -11 8 -22 18 -24 16 -4 16 -5
-1 -6 -20 -1 -32 21 -23 44 7 18 18 19 34 3z m43 -2 c-5 -6 -11 -20 -14 -31
-3 -14 -5 -10 -6 11 -1 21 4 31 14 31 9 0 11 -4 6 -11z m-1129 -21 c-2 -14 -6
-25 -8 -25 -2 0 -4 11 -4 25 0 14 4 25 9 25 4 0 6 -11 3 -25z m-694 -7 c-3 -7
-12 -14 -22 -14 -13 -2 -13 -1 -1 3 8 2 13 9 10 14 -4 5 -1 9 5 9 7 0 10 -6 8
-12z m1277 -9 c-4 -5 -14 -8 -23 -8 -15 1 -15 2 1 6 9 2 14 9 11 15 -4 7 -2 8
5 4 6 -4 9 -12 6 -17z m165 0 c0 -6 -4 -7 -10 -4 -5 3 -10 11 -10 16 0 6 5 7
10 4 6 -3 10 -11 10 -16z m-2850 -129 c0 -36 -2 -40 -25 -40 -20 0 -25 5 -25
26 0 17 6 28 20 31 11 3 20 9 20 14 0 5 2 9 5 9 3 0 5 -18 5 -40z m165 0 c0
-25 -5 -36 -18 -38 -24 -5 -47 16 -47 43 0 29 9 37 40 33 21 -3 25 -8 25 -38z
m149 31 c4 -5 -3 -7 -14 -4 -11 3 -20 1 -20 -5 0 -5 9 -12 21 -15 28 -7 21
-41 -9 -45 -20 -3 -22 1 -22 37 0 34 3 41 19 41 11 0 22 -4 25 -9z m180 -7 c4
-9 4 -19 1 -22 -3 -3 -6 1 -6 9 -1 8 -5 -2 -9 -21 l-7 -35 -2 43 c-1 42 11 56
23 26z m52 -11 c-10 -10 -19 5 -10 18 6 11 8 11 12 0 2 -7 1 -15 -2 -18z
m1518 -17 c1 -20 -2 -36 -5 -36 -8 0 -17 52 -11 69 7 20 14 5 16 -33z m-1650
-5 c1 -16 -2 -27 -5 -25 -9 5 -17 52 -11 59 9 9 15 -4 16 -34z m-356 11 c2 -7
-6 -12 -17 -12 -27 0 -27 -17 -1 -23 17 -4 17 -4 -2 -3 -32 2 -37 36 -6 36 19
0 20 2 8 11 -12 9 -12 10 -1 7 8 -3 17 -10 19 -16z m158 -6 c-14 -23 -14 -25
2 -29 12 -3 11 -5 -5 -6 -26 -1 -29 9 -11 27 10 10 10 15 -2 22 -12 8 -10 10
9 10 22 0 23 -1 7 -24z m163 10 c6 -7 9 -21 5 -30 -8 -21 -40 -21 -48 0 -5 14
-4 15 9 4 11 -9 19 -10 27 -2 14 14 0 35 -19 28 -8 -3 -11 -1 -8 4 9 14 21 12
34 -4z m241 -17 c0 -26 -3 -30 -22 -27 -16 2 -23 10 -24 26 -1 18 -1 19 3 2 6
-29 33 -25 33 5 0 14 2 25 5 25 3 0 5 -14 5 -31z m44 24 c-5 -5 -12 -12 -16
-18 -4 -6 -8 -2 -8 8 0 9 7 17 17 17 9 0 12 -3 7 -7z m33 -40 c-3 -10 -5 -2
-5 17 0 19 2 27 5 18 2 -10 2 -26 0 -35z m51 40 c-10 -2 -18 -13 -18 -23 0
-10 8 -21 18 -23 16 -4 16 -5 -1 -6 -20 -1 -32 21 -23 44 3 8 13 14 23 14 17
-1 17 -2 1 -6z m70 -26 c3 -23 0 -27 -22 -27 -16 0 -26 6 -26 15 0 8 5 15 11
15 5 0 7 -4 4 -10 -3 -5 1 -10 10 -10 20 0 16 32 -5 42 -11 6 -10 7 5 5 14 -1
21 -11 23 -30z m62 23 c-12 -8 -12 -10 3 -16 25 -9 21 -34 -5 -33 -21 0 -22 1
-3 8 18 7 18 8 1 18 -19 11 -14 33 7 33 7 0 6 -4 -3 -10z m78 -8 c2 -7 -6 -12
-17 -12 -27 0 -27 -17 -1 -23 17 -4 17 -4 -2 -3 -32 2 -37 36 -6 36 19 0 20 2
8 11 -12 9 -12 10 -1 7 8 -3 17 -10 19 -16z m82 7 c0 -7 -8 -18 -17 -26 -17
-14 -17 -14 0 -9 9 3 17 1 17 -4 0 -6 -9 -10 -20 -10 -24 0 -27 25 -3 34 15 6
15 8 3 16 -13 8 -12 10 3 10 9 0 17 -5 17 -11z m68 -17 c2 -14 -3 -24 -15 -29
-10 -4 -21 -11 -25 -17 -4 -6 -8 8 -8 30 0 37 3 41 23 40 15 -1 23 -8 25 -24z
m100 17 c-10 -5 -18 -16 -18 -24 0 -7 8 -16 18 -18 16 -4 16 -5 -1 -6 -10 0
-20 6 -23 14 -7 17 12 45 30 45 6 0 3 -5 -6 -11z m70 -22 c3 -23 0 -27 -20
-26 -17 1 -19 2 -5 6 18 5 19 32 2 46 -6 5 -4 7 5 4 8 -2 16 -16 18 -30z m29
-14 c-3 -10 -5 -2 -5 17 0 19 2 27 5 18 2 -10 2 -26 0 -35z m69 14 c1 -26 1
-26 -3 -2 -5 32 -25 28 -33 -6 -6 -22 -7 -22 -11 8 -5 29 -3 31 20 30 21 -2
26 -8 27 -30z m92 0 c3 -23 0 -27 -22 -27 -16 0 -26 6 -26 15 0 8 5 15 11 15
5 0 7 -4 4 -10 -3 -5 1 -10 10 -10 20 0 16 32 -5 42 -11 6 -10 7 5 5 14 -1 21
-11 23 -30z m80 15 c2 -7 -3 -12 -12 -12 -22 0 -20 -17 2 -23 16 -4 16 -5 -1
-6 -20 -1 -32 22 -23 45 7 17 27 15 34 -4z m40 4 c-7 -8 -15 -12 -17 -11 -5 6
10 25 20 25 5 0 4 -6 -3 -14z m59 8 c-3 -3 -12 -4 -19 -1 -8 3 -5 6 6 6 11 1
17 -2 13 -5z m57 -9 c4 -10 -1 -15 -14 -15 -25 0 -26 -17 -2 -23 16 -4 16 -5
-1 -6 -20 -1 -32 21 -23 44 3 8 12 15 20 15 7 0 16 -7 20 -15z m84 -18 c3 -23
0 -27 -20 -26 -17 1 -19 2 -5 6 18 5 19 32 2 46 -6 5 -4 7 5 4 8 -2 16 -16 18
-30z m48 -17 c17 0 18 21 2 39 -11 11 -10 13 2 9 23 -7 25 -47 3 -55 -10 -4
-21 -11 -25 -17 -4 -6 -7 9 -6 34 1 29 2 35 5 18 2 -16 11 -28 19 -28z m122
43 c-10 -2 -18 -13 -18 -23 0 -10 8 -21 18 -23 16 -4 16 -5 -1 -6 -10 0 -20 6
-23 14 -9 23 3 45 23 44 17 -1 17 -2 1 -6z m70 -26 c3 -21 -1 -27 -17 -27 -24
0 -36 16 -20 26 8 4 9 3 5 -4 -4 -7 -1 -12 9 -12 20 0 16 32 -5 42 -11 6 -10
7 5 5 14 -1 21 -11 23 -30z m69 -14 c-3 -10 -5 -2 -5 17 0 19 2 27 5 18 2 -10
2 -26 0 -35z m118 17 c0 -29 -32 -41 -41 -16 -9 24 4 48 23 44 12 -2 18 -12
18 -28z m-308 -17 c-3 -10 -5 -4 -5 12 0 17 2 24 5 18 2 -7 2 -21 0 -30z m234
12 c5 4 9 2 9 -4 0 -5 -4 -12 -9 -15 -9 -6 -22 17 -20 37 1 7 3 4 6 -6 2 -9 9
-15 14 -12z m-1617 -9 c-6 -16 -24 -13 -24 5 0 6 5 7 10 4 6 -3 10 -1 10 6 0
7 2 10 5 7 3 -3 3 -13 -1 -22z m33 -8 c-3 -8 -6 -5 -6 6 -1 11 2 17 5 13 3 -3
4 -12 1 -19z m118 1 c-4 -5 -14 -8 -23 -8 -15 1 -15 2 1 6 9 2 14 9 11 15 -4
7 -2 8 5 4 6 -4 9 -12 6 -17z m933 9 c-3 -7 -12 -14 -22 -14 -13 -2 -13 -1 -1
3 8 2 13 9 10 14 -4 5 -1 9 5 9 7 0 10 -6 8 -12z m-1784 -174 c20 -20 20 -68
0 -88 -8 -9 -28 -16 -44 -16 -16 0 -36 7 -44 16 -20 20 -20 68 0 88 8 9 28 16
44 16 16 0 36 -7 44 -16z m166 -8 c0 -2 7 -21 16 -42 11 -27 12 -35 3 -26 -7
6 -21 12 -30 12 -10 0 -20 -6 -22 -12 -4 -9 -6 -8 -6 2 0 8 4 22 9 30 6 10 10
11 10 3 0 -7 5 -13 10 -13 6 0 10 7 10 15 0 8 -4 15 -10 15 -5 0 -10 5 -10 10
0 6 5 10 10 10 6 0 10 -2 10 -4z m300 -36 c0 -34 -3 -40 -20 -40 -32 0 -36 28
-9 55 13 13 25 24 27 24 1 1 2 -17 2 -39z m180 -1 c0 -36 -2 -40 -22 -37 -31
4 -38 47 -9 55 12 3 21 9 21 14 0 5 2 9 5 9 3 0 5 -18 5 -41z m145 1 c0 -29
-4 -35 -23 -36 -18 -1 -19 -1 -2 3 25 5 26 19 3 32 -17 10 -17 10 0 11 25 0
21 18 -5 23 -20 5 -20 5 2 4 22 -2 25 -7 25 -37z m73 2 c4 -38 -20 -54 -45
-29 -23 23 -9 69 20 65 17 -2 23 -11 25 -36z m92 -2 c0 -34 -3 -40 -20 -40
-32 0 -36 28 -9 55 13 13 25 24 27 24 1 1 2 -17 2 -39z m360 -1 c0 -36 -2 -40
-22 -37 -31 4 -38 47 -9 55 12 3 21 9 21 14 0 5 2 9 5 9 3 0 5 -18 5 -41z
m147 26 c3 -9 -2 -24 -12 -34 -16 -18 -15 -20 2 -24 12 -3 8 -5 -10 -6 l-28
-1 20 26 c26 32 26 41 4 47 -17 4 -17 5 0 6 10 0 20 -6 24 -14z m67 6 c4 -5
-3 -7 -14 -4 -12 3 -20 0 -20 -8 0 -7 -3 -10 -6 -6 -9 9 5 27 21 27 8 0 16 -4
19 -9z m71 -2 c4 -6 -3 -21 -15 -34 l-22 -23 24 -5 c21 -4 20 -4 -4 -6 -33 -1
-35 9 -8 34 26 23 25 33 -2 38 -23 4 -23 4 -1 6 12 0 25 -4 28 -10z m65 -8 c0
-10 -7 -25 -16 -32 -14 -12 -14 -14 3 -20 14 -6 12 -8 -11 -8 l-29 -1 21 23
c27 28 28 44 5 50 -14 4 -12 5 5 6 15 1 22 -5 22 -18z m-1446 -30 c1 -16 -2
-27 -5 -25 -9 5 -17 52 -11 59 9 9 15 -4 16 -34z m970 0 c1 -16 -2 -27 -5 -25
-9 5 -17 52 -11 59 9 9 15 -4 16 -34z m-937 -18 c-3 -10 -5 -2 -5 17 0 19 2
27 5 18 2 -10 2 -26 0 -35z m53 7 c-16 -30 -22 -19 -7 13 6 14 13 22 15 17 2
-5 -2 -19 -8 -30z m65 9 c0 -15 -7 -25 -18 -27 -22 -4 -33 24 -17 43 18 21 35
13 35 -16z m153 13 c2 -7 -3 -12 -12 -12 -22 0 -20 -17 2 -23 16 -4 16 -5 -1
-6 -20 -1 -32 22 -23 45 7 17 27 15 34 -4z m40 4 c-7 -8 -15 -12 -17 -11 -5 6
10 25 20 25 5 0 4 -6 -3 -14z m139 -3 c2 -6 -6 -13 -19 -15 l-23 -5 25 -11
c24 -10 24 -11 3 -11 -25 -1 -34 17 -21 42 10 19 29 19 35 0z m311 -1 c2 -7
-3 -12 -12 -12 -22 0 -20 -17 2 -23 16 -4 16 -5 -1 -6 -20 -1 -32 22 -23 45 7
17 27 15 34 -4z m67 8 c-18 -7 -19 -8 -2 -15 25 -10 21 -35 -5 -34 -21 0 -22
1 -3 8 18 7 18 8 1 18 -21 12 -13 33 12 32 14 0 13 -2 -3 -9z m73 -8 c2 -7 -3
-12 -12 -12 -22 0 -20 -17 2 -23 16 -4 16 -5 -1 -6 -20 -1 -32 22 -23 45 7 17
27 15 34 -4z m219 1 c2 -6 -6 -13 -19 -15 l-23 -5 25 -11 c24 -10 24 -11 3
-11 -25 -1 -34 17 -21 42 10 19 29 19 35 0z m-789 -25 c-3 -7 -12 -14 -22 -14
-13 -2 -13 -1 -1 3 8 2 13 9 10 14 -4 5 -1 9 5 9 7 0 10 -6 8 -12z m938 -4
c15 6 16 4 7 -5 -14 -14 -43 -5 -43 13 0 10 3 9 9 -1 6 -9 16 -11 27 -7z
m-1538 -176 c3 -14 -3 -18 -27 -18 -29 0 -41 17 -24 34 13 13 48 1 51 -16z
m174 -66 c12 -2 18 5 21 30 l4 33 -1 -35 c-1 -30 -4 -35 -26 -35 -22 0 -25 4
-27 40 l-1 40 6 -35 c4 -21 14 -36 24 -38z m208 28 c0 -34 -3 -40 -20 -40 -32
0 -36 28 -9 55 13 13 25 24 27 24 1 1 2 -17 2 -39z m388 0 c1 -35 -2 -40 -21
-39 -17 1 -18 2 -4 6 19 5 23 33 5 34 -10 0 -10 2 0 6 17 7 15 21 -5 26 -14 4
-14 5 3 6 19 1 22 -5 22 -39z m332 0 c0 -33 -4 -40 -19 -40 -10 0 -22 8 -26
18 -5 14 -4 15 6 5 19 -19 29 -16 29 8 0 16 -4 20 -17 14 -15 -5 -15 -3 2 14
11 11 21 20 23 20 1 1 2 -17 2 -39z m-860 10 c-12 -8 -12 -10 3 -16 25 -9 21
-34 -5 -33 -21 0 -22 1 -3 8 18 7 18 8 1 18 -19 11 -14 33 7 33 7 0 6 -4 -3
-10z m78 -23 c3 -23 0 -27 -22 -27 -16 0 -26 6 -26 15 0 8 5 15 11 15 5 0 7
-4 4 -10 -3 -5 1 -10 10 -10 20 0 16 32 -5 42 -11 6 -10 7 5 5 14 -1 21 -11
23 -30z m120 21 c7 -7 12 -17 12 -22 0 -6 -5 -3 -11 7 -13 23 -29 22 -29 -2 0
-11 8 -22 18 -24 16 -4 16 -5 -1 -6 -20 -1 -32 21 -23 44 7 18 18 19 34 3z
m42 2 c-12 -8 -12 -10 3 -16 25 -9 21 -34 -5 -33 -21 0 -22 1 -3 8 18 7 18 8
1 18 -19 11 -14 33 7 33 7 0 6 -4 -3 -10z m104 -5 c4 -10 -1 -15 -14 -15 -25
0 -26 -17 -2 -23 16 -4 16 -5 -1 -6 -20 -1 -32 21 -23 44 3 8 12 15 20 15 7 0
16 -7 20 -15z m62 -18 c1 -26 1 -26 -3 -2 -5 31 -25 28 -34 -6 -6 -22 -7 -21
-8 7 -1 26 3 31 22 30 17 -1 22 -7 23 -29z m34 3 c0 -16 -2 -30 -4 -30 -2 0
-6 14 -8 30 -3 17 -1 30 4 30 4 0 8 -13 8 -30z m155 20 c-18 -7 -19 -8 -2 -15
25 -10 21 -35 -5 -34 -21 0 -22 1 -3 8 18 7 18 8 1 18 -21 12 -13 33 12 32 14
0 13 -2 -3 -9z m72 -7 c2 -6 -6 -13 -19 -15 l-23 -5 25 -11 c24 -10 24 -11 3
-11 -25 -1 -34 17 -21 42 10 19 29 19 35 0z m45 5 c-5 -7 -12 -22 -15 -33 -4
-16 -5 -14 -6 7 -1 22 7 33 28 37 2 1 -1 -5 -7 -11z m48 -28 c-16 -30 -22 -19
-7 13 6 14 13 22 15 17 2 -5 -2 -19 -8 -30z m37 -7 c-3 -10 -5 -2 -5 17 0 19
2 27 5 18 2 -10 2 -26 0 -35z m121 35 c7 -7 12 -17 12 -22 0 -6 -5 -3 -11 7
-13 23 -29 22 -29 -2 0 -11 8 -22 18 -24 16 -4 16 -5 -1 -6 -20 -1 -32 21 -23
44 7 18 18 19 34 3z m110 -6 c2 -7 -6 -12 -17 -12 -27 0 -27 -17 -1 -23 17 -4
17 -4 -2 -3 -32 2 -37 36 -6 36 19 0 20 2 8 11 -12 9 -12 10 -1 7 8 -3 17 -10
19 -16z m37 8 c-18 -7 -19 -8 -2 -15 25 -10 21 -35 -5 -34 -21 0 -22 1 -3 8
18 7 18 8 1 18 -21 12 -13 33 12 32 14 0 13 -2 -3 -9z m-1275 -35 c0 -19 -4
-35 -8 -35 -5 0 -7 14 -4 30 3 18 0 30 -7 30 -6 0 -11 -8 -11 -19 0 -28 -26
-47 -45 -31 -8 7 -15 21 -15 31 0 11 -5 19 -11 19 -7 0 -10 -12 -7 -30 3 -16
1 -30 -4 -30 -4 0 -8 16 -8 35 l0 35 60 0 60 0 0 -35z m1162 10 c-2 -14 -6
-25 -8 -25 -2 0 -4 11 -4 25 0 14 4 25 9 25 4 0 6 -11 3 -25z m-1197 -177 c30
-13 35 -61 8 -90 -33 -36 -83 -8 -83 47 0 28 12 43 47 54 1 1 14 -4 28 -11z
m173 -15 c-10 -2 -18 -9 -18 -14 0 -5 8 -10 18 -10 16 -1 16 -2 0 -6 -10 -2
-18 -11 -18 -18 0 -7 8 -16 18 -18 13 -4 11 -5 -5 -6 -20 -1 -23 4 -23 39 0
35 3 40 23 39 16 -1 18 -2 5 -6z m359 -55 c-2 -13 -4 -3 -4 22 0 25 2 35 4 23
2 -13 2 -33 0 -45z m476 55 c-7 -2 -19 -2 -25 0 -7 3 -2 5 12 5 14 0 19 -2 13
-5z m297 -33 c0 -36 -3 -40 -24 -40 -34 0 -42 29 -14 56 32 32 38 30 38 -16z
m107 -22 c-2 -13 -4 -3 -4 22 0 25 2 35 4 23 2 -13 2 -33 0 -45z m-1189 28
c-7 -8 -15 -12 -17 -11 -5 6 10 25 20 25 5 0 4 -6 -3 -14z m52 4 c-12 -8 -12
-10 3 -16 25 -9 21 -34 -5 -33 -21 0 -22 1 -3 8 18 7 18 8 1 18 -19 11 -14 33
7 33 7 0 6 -4 -3 -10z m77 -7 c2 -6 -6 -13 -19 -15 l-23 -5 25 -11 c24 -10 24
-11 3 -11 -25 -1 -34 17 -21 42 10 19 29 19 35 0z m83 6 c0 -7 -8 -18 -17 -26
-17 -14 -17 -14 0 -9 9 3 17 1 17 -4 0 -6 -9 -10 -20 -10 -24 0 -27 25 -3 34
15 6 15 8 3 16 -13 8 -12 10 3 10 9 0 17 -5 17 -11z m68 -17 c2 -14 -3 -24
-15 -29 -10 -4 -21 -11 -25 -17 -4 -6 -8 8 -8 30 0 37 3 41 23 40 15 -1 23 -8
25 -24z m100 17 c-10 -5 -18 -16 -18 -24 0 -7 8 -16 18 -18 16 -4 16 -5 -1 -6
-10 0 -20 6 -23 14 -7 17 12 45 30 45 6 0 3 -5 -6 -11z m72 0 c0 -7 -8 -18
-17 -26 -17 -14 -17 -14 0 -9 9 3 17 1 17 -4 0 -6 -9 -10 -20 -10 -24 0 -27
25 -3 34 15 6 15 8 3 16 -13 8 -12 10 3 10 9 0 17 -5 17 -11z m47 5 c-3 -3
-12 -4 -19 -1 -8 3 -5 6 6 6 11 1 17 -2 13 -5z m73 -34 c-16 -30 -22 -19 -7
13 6 14 13 22 15 17 2 -5 -2 -19 -8 -30z m65 9 c0 -15 -7 -25 -18 -27 -22 -4
-33 24 -17 43 18 21 35 13 35 -16z m65 -5 c0 -13 -4 -24 -10 -24 -5 0 -10 14
-10 31 0 17 4 28 10 24 6 -3 10 -17 10 -31z m30 6 c0 -16 -2 -30 -4 -30 -2 0
-6 14 -8 30 -3 17 -1 30 4 30 4 0 8 -13 8 -30z m60 0 c0 -23 -4 -30 -20 -30
-13 0 -20 6 -19 18 0 10 3 12 6 5 2 -7 9 -13 14 -13 15 0 6 34 -11 42 -11 5
-9 7 8 7 18 1 22 -4 22 -29z m60 15 c15 -18 6 -45 -15 -45 -18 0 -30 24 -21
45 7 19 20 19 36 0z m98 -13 c2 -14 -3 -24 -15 -29 -10 -4 -21 -11 -25 -17 -4
-6 -8 8 -8 30 0 37 3 41 23 40 15 -1 23 -8 25 -24z m57 -2 c0 -29 -32 -41 -41
-16 -9 24 4 48 23 44 12 -2 18 -12 18 -28z m133 13 c2 -8 -5 -13 -17 -13 -28
0 -27 -17 2 -23 l22 -4 -23 -2 c-25 -1 -38 20 -28 45 7 18 37 15 44 -3z m109
0 c2 -6 -6 -13 -19 -15 l-23 -5 25 -11 c24 -10 24 -11 3 -11 -25 -1 -34 17
-21 42 10 19 29 19 35 0z m45 5 c-5 -7 -12 -22 -15 -33 -4 -16 -5 -14 -6 7 -1
22 7 33 28 37 2 1 -1 -5 -7 -11z m72 5 c-5 -5 -12 -12 -16 -18 -4 -6 -8 -2 -8
8 0 9 7 17 17 17 9 0 12 -3 7 -7z m46 -43 c5 0 11 10 13 23 4 19 4 18 6 -5 1
-22 -4 -28 -19 -28 -16 0 -20 6 -19 33 2 30 2 30 6 5 2 -16 8 -28 13 -28z m80
39 c0 -7 -8 -18 -17 -26 -17 -14 -17 -14 0 -9 9 3 17 1 17 -4 0 -6 -9 -10 -20
-10 -24 0 -27 25 -3 34 15 6 15 8 3 16 -13 8 -12 10 3 10 9 0 17 -5 17 -11z
m40 1 c-12 -8 -12 -10 3 -16 25 -9 21 -34 -5 -33 -21 0 -22 1 -3 8 18 7 18 8
1 18 -19 11 -14 33 7 33 7 0 6 -4 -3 -10z m106 -23 c1 -26 1 -26 -3 -2 -5 31
-25 28 -34 -6 -6 -22 -7 -21 -8 7 -1 26 3 31 22 30 17 -1 22 -7 23 -29z m34 3
c0 -16 -2 -30 -4 -30 -2 0 -6 14 -8 30 -3 17 -1 30 4 30 4 0 8 -13 8 -30z m58
12 c2 -7 -3 -12 -12 -12 -22 0 -20 -17 2 -23 16 -4 16 -5 -1 -6 -20 -1 -32 22
-23 45 7 17 27 15 34 -4z m29 -29 c-3 -10 -5 -2 -5 17 0 19 2 27 5 18 2 -10 2
-26 0 -35z m33 37 c0 -5 -2 -10 -4 -10 -3 0 -8 5 -11 10 -3 6 -1 10 4 10 6 0
11 -4 11 -10z m40 0 c-12 -8 -12 -10 3 -16 25 -9 21 -34 -5 -33 -21 0 -22 1
-3 8 18 7 18 8 1 18 -19 11 -14 33 7 33 7 0 6 -4 -3 -10z m78 -23 c3 -21 -1
-27 -17 -27 -24 0 -36 16 -20 26 8 4 9 3 5 -4 -4 -7 -1 -12 9 -12 20 0 16 32
-5 42 -11 6 -10 7 5 5 14 -1 21 -11 23 -30z m58 21 c4 -6 -1 -17 -11 -25 -18
-13 -18 -13 1 -14 15 -1 14 -3 -6 -9 l-25 -8 25 -2 c14 -1 19 -4 12 -7 -7 -3
-19 -2 -27 0 -17 7 -8 47 11 47 8 0 14 5 14 11 0 6 -7 8 -16 5 -8 -3 -12 -2
-9 4 8 13 22 13 31 -2z m62 -6 c2 -7 -6 -12 -17 -12 -27 0 -27 -17 -1 -23 17
-4 17 -4 -2 -3 -32 2 -37 36 -6 36 19 0 20 2 8 11 -12 9 -12 10 -1 7 8 -3 17
-10 19 -16z m58 -18 l2 -29 -5 28 c-5 33 -25 31 -34 -4 l-7 -24 -1 27 c-1 25
13 39 34 34 6 -1 11 -16 11 -32z m42 22 c-7 -8 -15 -12 -17 -11 -5 6 10 25 20
25 5 0 4 -6 -3 -14z m101 0 c6 -7 9 -21 5 -30 -8 -21 -40 -21 -48 0 -5 14 -4
15 9 4 11 -9 19 -10 27 -2 14 14 0 35 -19 28 -8 -3 -11 -1 -8 4 9 14 21 12 34
-4z m46 -36 c8 0 16 12 18 28 4 25 4 24 6 -6 1 -29 -2 -33 -21 -30 -17 2 -23
10 -24 28 -1 22 0 22 3 3 2 -13 10 -23 18 -23z m109 35 c4 -10 -1 -15 -14 -15
-25 0 -26 -17 -2 -23 16 -4 16 -5 -1 -6 -20 -1 -32 21 -23 44 3 8 12 15 20 15
7 0 16 -7 20 -15z m62 -18 c1 -26 1 -26 -3 -2 -5 31 -25 28 -34 -6 -6 -22 -7
-21 -8 7 -1 26 3 31 22 30 17 -1 22 -7 23 -29z m81 -14 c-3 -10 -5 -2 -5 17 0
19 2 27 5 18 2 -10 2 -26 0 -35z m61 14 c3 -23 0 -27 -20 -26 -17 1 -19 2 -5
6 18 5 19 32 2 46 -6 5 -4 7 5 4 8 -2 16 -16 18 -30z m43 19 c-5 -6 -11 -20
-14 -31 -3 -14 -5 -10 -6 11 -1 21 4 31 14 31 9 0 11 -4 6 -11z m125 -19 c1
-26 1 -26 -3 -2 -5 32 -25 28 -33 -6 -6 -22 -7 -22 -11 8 -5 29 -3 31 20 30
21 -2 26 -8 27 -30z m61 16 c2 -6 -6 -13 -19 -15 l-23 -5 25 -11 c24 -10 24
-11 3 -11 -25 -1 -34 17 -21 42 10 19 29 19 35 0z m63 -13 c0 -16 -2 -30 -4
-30 -2 0 -6 14 -8 30 -3 17 -1 30 4 30 4 0 8 -13 8 -30z m38 16 c-7 -8 -15
-12 -17 -11 -5 6 10 25 20 25 5 0 4 -6 -3 -14z m72 3 c0 -7 -8 -18 -17 -26
-17 -14 -17 -14 0 -9 9 3 17 1 17 -4 0 -6 -9 -10 -20 -10 -24 0 -27 25 -3 34
15 6 15 8 3 16 -13 8 -12 10 3 10 9 0 17 -5 17 -11z m62 -11 c-2 -10 -9 -18
-16 -18 -6 0 -3 -5 7 -11 20 -12 14 -29 -12 -29 -14 0 -17 7 -15 38 2 45 0 41
23 39 12 -1 17 -7 13 -19z m62 7 c4 -10 -1 -15 -14 -15 -25 0 -26 -17 -2 -23
16 -4 16 -5 -1 -6 -20 -1 -32 21 -23 44 3 8 12 15 20 15 7 0 16 -7 20 -15z
m62 -18 c1 -26 1 -26 -3 -2 -5 31 -25 28 -34 -6 -6 -22 -7 -21 -8 7 -1 26 3
31 22 30 17 -1 22 -7 23 -29z m39 23 c-18 -7 -19 -8 -2 -15 25 -10 21 -35 -5
-34 -21 0 -22 1 -3 8 18 7 18 8 1 18 -21 12 -13 33 12 32 14 0 13 -2 -3 -9z
m-2698 -37 c-3 -10 -5 -4 -5 12 0 17 2 24 5 18 2 -7 2 -21 0 -30z m2170 0 c-3
-10 -5 -4 -5 12 0 17 2 24 5 18 2 -7 2 -21 0 -30z m160 0 c-3 -10 -5 -4 -5 12
0 17 2 24 5 18 2 -7 2 -21 0 -30z m-2829 5 c-3 -7 -12 -14 -22 -14 -13 -2 -13
-1 -1 3 8 2 13 9 10 14 -4 5 -1 9 5 9 7 0 10 -6 8 -12z m1357 -9 c-4 -5 -14
-8 -23 -8 -15 1 -15 2 1 6 9 2 14 9 11 15 -4 7 -2 8 5 4 6 -4 9 -12 6 -17z
m773 9 c-3 -7 -12 -14 -22 -14 -13 -2 -13 -1 -1 3 8 2 13 9 10 14 -4 5 -1 9 5
9 7 0 10 -6 8 -12z m342 -9 c0 -6 -4 -7 -10 -4 -5 3 -10 11 -10 16 0 6 5 7 10
4 6 -3 10 -11 10 -16z m448 9 c-3 -7 -12 -14 -22 -14 -13 -2 -13 -1 -1 3 8 2
13 9 10 14 -4 5 -1 9 5 9 7 0 10 -6 8 -12z m-2980 -136 c2 -7 -3 -12 -12 -12
-22 0 -20 -17 2 -23 16 -4 16 -5 -1 -6 -20 -1 -32 22 -23 45 7 17 27 15 34 -4z
m29 -29 c-3 -10 -5 -2 -5 17 0 19 2 27 5 18 2 -10 2 -26 0 -35z m69 14 c1 -26
1 -26 -3 -2 -5 32 -25 28 -33 -6 -6 -22 -7 -22 -11 8 -5 29 -3 31 20 30 21 -2
26 -8 27 -30z m69 23 c-18 -7 -19 -8 -2 -15 25 -10 21 -35 -5 -34 -21 0 -22 1
-3 8 18 7 18 8 1 18 -21 12 -13 33 12 32 14 0 13 -2 -3 -9z m72 -7 c2 -6 -6
-13 -19 -15 l-23 -5 25 -11 c24 -10 24 -11 3 -11 -25 -1 -34 17 -21 42 10 19
29 19 35 0z m43 -33 c5 0 11 12 13 28 4 25 4 25 6 -5 1 -27 -3 -33 -19 -33
-16 0 -20 6 -19 33 2 30 2 30 6 5 2 -16 8 -28 13 -28z m110 20 c0 -16 -2 -30
-4 -30 -2 0 -6 14 -8 30 -3 17 -1 30 4 30 4 0 8 -13 8 -30z m58 18 c7 -7 12
-17 12 -22 0 -6 -5 -3 -11 7 -13 23 -29 22 -29 -2 0 -11 8 -22 18 -24 16 -4
16 -5 -1 -6 -20 -1 -32 21 -23 44 7 18 18 19 34 3z m68 -21 c1 -26 1 -26 -3
-2 -5 31 -25 28 -34 -6 -6 -22 -7 -21 -8 7 -1 26 3 31 22 30 17 -1 22 -7 23
-29z m34 3 c0 -16 -2 -30 -4 -30 -2 0 -6 14 -8 30 -3 17 -1 30 4 30 4 0 8 -13
8 -30z m58 12 c2 -7 -3 -12 -12 -12 -22 0 -20 -17 2 -23 16 -4 16 -5 -1 -6
-20 -1 -32 22 -23 45 7 17 27 15 34 -4z m-251 -29 c-3 -10 -5 -4 -5 12 0 17 2
24 5 18 2 -7 2 -21 0 -30z m-347 -603 c0 -5 -12 -10 -26 -10 -23 0 -25 -3 -22
-32 2 -27 7 -33 26 -31 12 2 22 -2 22 -8 0 -6 -14 -9 -32 -7 -29 3 -33 7 -36
36 -2 18 2 40 9 48 13 16 59 19 59 4z m310 -40 c0 -27 -4 -50 -10 -50 -5 0
-10 23 -10 50 0 28 5 50 10 50 6 0 10 -22 10 -50z m2384 10 c18 -45 21 -75 5
-47 -13 22 -45 22 -53 1 -4 -9 -9 -15 -11 -12 -7 6 27 98 36 98 4 0 14 -18 23
-40z m128 -17 c-3 -15 1 -29 9 -34 11 -7 11 -9 -2 -9 -17 0 -31 52 -21 78 8
22 20 -6 14 -35z m-2752 -8 c0 -32 -2 -35 -30 -35 -36 0 -41 26 -7 40 17 7 18
9 5 9 -28 1 -21 21 7 21 22 0 25 -4 25 -35z m78 -2 c2 -19 -1 -33 -7 -33 -6 0
-11 11 -11 25 0 34 -28 32 -33 -2 -3 -22 -4 -20 -6 10 -1 36 1 38 27 35 22 -2
28 -8 30 -35z m130 15 c2 -13 -3 -18 -17 -18 -12 0 -21 -5 -21 -11 0 -6 9 -9
20 -6 11 3 20 1 20 -4 0 -5 -26 -8 -57 -6 -47 2 -58 5 -61 20 -7 37 5 46 60
44 41 -2 53 -6 56 -19z m102 -14 c0 -32 -2 -35 -27 -32 -34 4 -41 25 -11 37
17 7 18 10 6 10 -28 1 -21 21 7 21 22 0 25 -4 25 -36z m60 25 c0 -5 -4 -9 -10
-9 -5 0 -10 -11 -10 -25 0 -14 -4 -25 -10 -25 -5 0 -10 15 -10 33 0 26 4 33
20 34 11 1 20 -2 20 -8z m2313 -46 c7 2 15 17 18 33 6 27 7 27 8 -8 1 -34 -2
-38 -24 -38 -23 0 -25 4 -23 38 l1 37 4 -33 c3 -20 9 -32 16 -29z m147 42 c17
-21 3 -57 -22 -53 -30 4 -45 32 -29 52 17 20 35 20 51 1z m60 3 c0 -4 -4 -8
-10 -8 -5 0 -10 -11 -10 -25 0 -14 -4 -25 -10 -25 -5 0 -10 15 -10 33 0 26 4
33 20 33 11 0 20 -4 20 -8z m30 -23 c0 -19 -4 -35 -10 -35 -5 0 -10 16 -10 35
0 19 5 35 10 35 6 0 10 -16 10 -35z m60 28 c0 -5 -7 -17 -16 -28 -13 -18 -13
-20 3 -27 14 -5 12 -7 -9 -7 -31 -1 -36 10 -13 29 20 16 19 27 -2 33 -11 3 -7
5 10 6 15 0 27 -2 27 -6z m68 -31 c3 -31 2 -33 -24 -30 -34 4 -44 27 -15 35
12 3 21 10 21 15 0 6 -7 8 -15 4 -8 -3 -15 -1 -15 5 0 6 10 9 23 7 17 -2 23
-11 25 -36z m52 28 c0 -3 -4 -10 -9 -15 -5 -6 -11 -19 -14 -30 -3 -12 -5 -5
-6 16 -1 26 3 36 14 36 8 0 15 -3 15 -7z"/>
<path d="M2921 8013 l1 -48 13 35 c18 47 18 60 0 60 -11 0 -15 -12 -14 -47z"/>
<path d="M2870 8005 c0 -25 5 -45 10 -45 6 0 10 20 10 45 0 25 -4 45 -10 45
-5 0 -10 -20 -10 -45z"/>
<path d="M3192 8005 c0 -16 2 -22 5 -12 2 9 2 23 0 30 -3 6 -5 -1 -5 -18z"/>
<path d="M3410 8005 c0 -25 5 -45 10 -45 6 0 10 9 10 20 0 11 7 20 15 20 8 0
15 5 15 10 0 6 -7 10 -15 10 -8 0 -15 7 -15 15 0 8 -4 15 -10 15 -5 0 -10 -20
-10 -45z"/>
<path d="M3490 8005 c0 -25 5 -45 10 -45 6 0 10 20 10 45 0 25 -4 45 -10 45
-5 0 -10 -20 -10 -45z"/>
<path d="M2000 7160 c-8 -5 -11 -12 -8 -16 10 -9 38 3 38 16 0 12 -10 13 -30
0z"/>
<path d="M2087 7194 c-4 -4 -7 -18 -7 -31 0 -27 25 -31 34 -6 7 18 -16 48 -27
37z"/>
<path d="M2317 7163 c-12 -11 -8 -23 8 -23 8 0 15 7 15 15 0 16 -12 20 -23 8z"/>
<path d="M2564 7185 c-8 -21 3 -47 19 -43 6 3 13 14 15 25 4 24 -26 40 -34 18z"/>
<path d="M2685 7190 c-3 -5 1 -10 10 -10 9 0 13 5 10 10 -3 6 -8 10 -10 10 -2
0 -7 -4 -10 -10z"/>
<path d="M2885 7190 c-3 -5 3 -10 15 -10 12 0 18 5 15 10 -3 6 -10 10 -15 10
-5 0 -12 -4 -15 -10z"/>
<path d="M3117 7194 c-4 -4 -7 -18 -7 -31 0 -26 27 -32 37 -7 6 17 -19 49 -30
38z"/>
<path d="M1684 6906 c-11 -29 1 -61 23 -64 24 -4 38 25 28 58 -7 23 -43 27
-51 6z"/>
<path d="M1970 6904 c0 -8 5 -12 10 -9 6 3 10 10 10 16 0 5 -4 9 -10 9 -5 0
-10 -7 -10 -16z"/>
<path d="M1970 6855 c0 -9 5 -15 11 -13 6 2 11 8 11 13 0 5 -5 11 -11 13 -6 2
-11 -4 -11 -13z"/>
<path d="M3077 6897 c-3 -8 -1 -20 4 -28 11 -19 34 3 26 25 -8 20 -23 21 -30
3z"/>
<path d="M2080 6860 c0 -13 5 -20 13 -17 6 2 12 10 12 17 0 7 -6 15 -12 18 -8
2 -13 -5 -13 -18z"/>
<path d="M2820 6839 c0 -5 5 -7 10 -4 6 3 10 8 10 11 0 2 -4 4 -10 4 -5 0 -10
-5 -10 -11z"/>
<path d="M2980 6585 c0 -37 3 -45 18 -45 24 0 42 19 42 45 0 26 -18 45 -42 45
-15 0 -18 -8 -18 -45z"/>
<path d="M3407 6593 c-4 -3 -7 -17 -7 -30 0 -16 6 -23 20 -23 16 0 20 7 20 30
0 28 -17 40 -33 23z"/>
<path d="M1427 6593 c-4 -3 -7 -17 -7 -30 0 -35 34 -26 38 10 3 26 -14 37 -31
20z"/>
<path d="M1590 6590 c0 -5 7 -10 15 -10 8 0 15 5 15 10 0 6 -7 10 -15 10 -8 0
-15 -4 -15 -10z"/>
<path d="M1763 6563 c-20 -8 -15 -23 7 -23 11 0 20 7 20 15 0 15 -6 17 -27 8z"/>
<path d="M1915 6590 c-3 -5 3 -10 15 -10 12 0 18 5 15 10 -3 6 -10 10 -15 10
-5 0 -12 -4 -15 -10z"/>
<path d="M2133 6563 c-20 -8 -15 -23 7 -23 11 0 20 7 20 15 0 15 -6 17 -27 8z"/>
<path d="M2455 6559 c-4 -6 -4 -13 -1 -16 8 -8 36 5 36 17 0 13 -27 13 -35 -1z"/>
<path d="M2641 6587 c-15 -19 -3 -49 18 -45 9 2 16 13 16 27 0 29 -17 37 -34
18z"/>
<path d="M2863 6563 c-20 -8 -15 -23 7 -23 11 0 20 7 20 15 0 15 -6 17 -27 8z"/>
<path d="M3265 6580 c-8 -26 7 -45 30 -36 21 8 16 50 -7 54 -10 2 -19 -5 -23
-18z"/>
<path d="M2110 6336 c-7 -10 -10 -26 -6 -42 5 -19 12 -25 29 -22 18 2 22 9 22
38 0 39 -23 52 -45 26z"/>
<path d="M2974 6336 c-3 -8 -4 -25 -2 -38 4 -32 42 -32 46 0 6 38 -32 70 -44
38z"/>
<path d="M1205 6310 c-3 -5 3 -10 15 -10 12 0 18 5 15 10 -3 6 -10 10 -15 10
-5 0 -12 -4 -15 -10z"/>
<path d="M2395 6280 c-3 -5 1 -10 9 -10 9 0 16 5 16 10 0 6 -4 10 -9 10 -6 0
-13 -4 -16 -10z"/>
<path d="M2633 6304 c-8 -21 13 -42 28 -27 13 13 5 43 -11 43 -6 0 -13 -7 -17
-16z"/>
<path d="M807 5673 c-15 -14 -7 -43 12 -43 23 0 34 23 18 39 -13 13 -21 14
-30 4z"/>
<path d="M1707 5674 c-16 -16 -7 -44 14 -44 15 0 20 5 17 22 -3 22 -19 33 -31
22z"/>
<path d="M2317 5674 c-16 -16 -7 -44 14 -44 15 0 20 5 17 22 -3 22 -19 33 -31
22z"/>
<path d="M2717 5674 c-16 -16 -7 -44 14 -44 15 0 20 5 17 22 -3 22 -19 33 -31
22z"/>
<path d="M3117 5673 c-15 -14 -7 -43 12 -43 23 0 34 23 18 39 -13 13 -21 14
-30 4z"/>
<path d="M3397 5673 c-15 -14 -7 -43 12 -43 23 0 34 23 18 39 -13 13 -21 14
-30 4z"/>
<path d="M930 5665 c0 -8 5 -15 10 -15 6 0 10 7 10 15 0 8 -4 15 -10 15 -5 0
-10 -7 -10 -15z"/>
<path d="M1080 5665 c0 -9 5 -15 11 -13 6 2 11 8 11 13 0 5 -5 11 -11 13 -6 2
-11 -4 -11 -13z"/>
<path d="M1430 5664 c0 -8 5 -12 10 -9 6 4 8 11 5 16 -9 14 -15 11 -15 -7z"/>
<path d="M1510 5650 c0 -5 5 -10 10 -10 6 0 10 5 10 10 0 6 -4 10 -10 10 -5 0
-10 -4 -10 -10z"/>
<path d="M1620 5650 c0 -5 5 -10 10 -10 6 0 10 5 10 10 0 6 -4 10 -10 10 -5 0
-10 -4 -10 -10z"/>
<path d="M1830 5656 c0 -17 5 -26 16 -26 10 0 14 7 12 22 -5 32 -28 35 -28 4z"/>
<path d="M2627 5674 c-4 -4 -7 -16 -7 -26 0 -20 25 -25 36 -7 8 13 -19 43 -29
33z"/>
<path d="M2810 5664 c0 -8 5 -12 10 -9 6 3 10 10 10 16 0 5 -4 9 -10 9 -5 0
-10 -7 -10 -16z"/>
<path d="M2920 5656 c0 -17 5 -26 16 -26 10 0 14 7 12 22 -5 32 -28 35 -28 4z"/>
<path d="M3310 5670 c0 -5 7 -10 16 -10 8 0 12 5 9 10 -3 6 -10 10 -16 10 -5
0 -9 -4 -9 -10z"/>
<path d="M3315 5640 c-3 -5 1 -10 10 -10 9 0 13 5 10 10 -3 6 -8 10 -10 10 -2
0 -7 -4 -10 -10z"/>
<path d="M3991 5654 c0 -11 3 -14 6 -6 3 7 2 16 -1 19 -3 4 -6 -2 -5 -13z"/>
<path d="M702 5507 c-15 -17 1 -42 23 -33 18 6 17 37 -1 43 -6 2 -16 -2 -22
-10z"/>
<path d="M620 5505 c0 -8 5 -15 10 -15 6 0 10 7 10 15 0 8 -4 15 -10 15 -5 0
-10 -7 -10 -15z"/>
<path d="M797 5514 c-4 -4 -7 -16 -7 -26 0 -20 25 -25 36 -7 8 13 -19 43 -29
33z"/>
<path d="M960 5504 c0 -8 5 -12 10 -9 6 4 8 11 5 16 -9 14 -15 11 -15 -7z"/>
<path d="M1802 5118 c2 -13 8 -23 13 -23 6 0 11 10 13 23 2 15 -2 22 -13 22
-11 0 -15 -7 -13 -22z"/>
<path d="M2892 5118 c2 -13 8 -23 13 -23 6 0 11 10 13 23 2 15 -2 22 -13 22
-11 0 -15 -7 -13 -22z"/>
<path d="M1180 5110 c-8 -5 -11 -12 -7 -16 4 -4 13 -2 19 4 15 15 7 24 -12 12z"/>
<path d="M1420 5121 c0 -11 5 -23 11 -27 14 -8 29 14 22 33 -8 20 -33 16 -33
-6z"/>
<path d="M1640 5110 c-8 -5 -11 -12 -7 -16 4 -4 13 -2 19 4 15 15 7 24 -12 12z"/>
<path d="M1883 5124 c-7 -18 11 -39 26 -30 17 11 13 46 -4 46 -9 0 -18 -7 -22
-16z"/>
<path d="M2078 5133 c7 -3 16 -2 19 1 4 3 -2 6 -13 5 -11 0 -14 -3 -6 -6z"/>
<path d="M2648 5133 c7 -3 16 -2 19 1 4 3 -2 6 -13 5 -11 0 -14 -3 -6 -6z"/>
<path d="M2980 5121 c0 -11 5 -23 11 -27 14 -8 29 14 22 33 -8 20 -33 16 -33
-6z"/>
<path d="M1140 4710 c-8 -5 -11 -12 -8 -16 10 -9 38 3 38 16 0 12 -10 13 -30
0z"/>
<path d="M1290 4710 c-8 -5 -11 -12 -8 -16 10 -9 38 3 38 16 0 12 -10 13 -30
0z"/>
<path d="M1794 4736 c-9 -22 2 -46 21 -46 12 0 15 8 13 27 -3 30 -25 42 -34
19z"/>
<path d="M1951 4737 c-14 -17 -4 -47 15 -47 22 0 29 29 12 46 -13 13 -16 13
-27 1z"/>
<path d="M2125 4740 c-3 -5 1 -10 10 -10 9 0 13 5 10 10 -3 6 -8 10 -10 10 -2
0 -7 -4 -10 -10z"/>
<path d="M957 4143 c-15 -14 -7 -43 12 -43 23 0 34 23 18 39 -13 13 -21 14
-30 4z"/>
<path d="M1427 4144 c-16 -16 -7 -44 14 -44 15 0 20 5 17 22 -3 22 -19 33 -31
22z"/>
<path d="M1987 4143 c-15 -14 -7 -43 12 -43 23 0 34 23 18 39 -13 13 -21 14
-30 4z"/>
<path d="M626 4125 c-3 -8 -1 -15 4 -15 6 0 10 7 10 15 0 8 -2 15 -4 15 -2 0
-6 -7 -10 -15z"/>
<path d="M710 4124 c0 -16 5 -24 13 -22 18 7 20 35 2 41 -11 5 -15 0 -15 -19z"/>
<path d="M1151 4124 c0 -11 3 -14 6 -6 3 7 2 16 -1 19 -3 4 -6 -2 -5 -13z"/>
<path d="M1230 4134 c0 -8 5 -12 10 -9 6 3 10 10 10 16 0 5 -4 9 -10 9 -5 0
-10 -7 -10 -16z"/>
<path d="M1340 4120 c0 -5 5 -10 10 -10 6 0 10 5 10 10 0 6 -4 10 -10 10 -5 0
-10 -4 -10 -10z"/>
<path d="M1690 4135 c0 -9 5 -15 11 -13 6 2 11 8 11 13 0 5 -5 11 -11 13 -6 2
-11 -4 -11 -13z"/>
<path d="M1900 4124 c0 -16 5 -24 13 -22 18 7 20 35 2 41 -11 5 -15 0 -15 -19z"/>
<path d="M2080 4135 c0 -9 5 -15 11 -13 6 2 11 8 11 13 0 5 -5 11 -11 13 -6 2
-11 -4 -11 -13z"/>
<path d="M2620 3380 c0 -11 5 -20 10 -20 6 0 10 9 10 20 0 11 -4 20 -10 20 -5
0 -10 -9 -10 -20z"/>
<path d="M3525 3387 c-4 -10 -5 -21 -1 -24 10 -10 18 4 13 24 -4 17 -4 17 -12
0z"/>
<path d="M750 3380 c0 -13 5 -20 13 -17 6 2 12 10 12 17 0 7 -6 15 -12 18 -8
2 -13 -5 -13 -18z"/>
<path d="M940 3380 c0 -11 5 -20 10 -20 6 0 10 9 10 20 0 11 -4 20 -10 20 -5
0 -10 -9 -10 -20z"/>
<path d="M1197 3393 c-13 -12 -7 -33 8 -33 8 0 15 9 15 20 0 20 -11 26 -23 13z"/>
<path d="M1467 3393 c-13 -12 -7 -33 8 -33 8 0 15 9 15 20 0 20 -11 26 -23 13z"/>
<path d="M1895 3370 c-3 -5 1 -10 9 -10 9 0 16 5 16 10 0 6 -4 10 -9 10 -6 0
-13 -4 -16 -10z"/>
<path d="M2070 3380 c0 -13 5 -20 13 -17 6 2 12 10 12 17 0 7 -6 15 -12 18 -8
2 -13 -5 -13 -18z"/>
<path d="M2530 3380 c0 -13 5 -20 13 -17 6 2 12 10 12 17 0 7 -6 15 -12 18 -8
2 -13 -5 -13 -18z"/>
<path d="M2770 3390 c0 -5 5 -10 10 -10 6 0 10 5 10 10 0 6 -4 10 -10 10 -5 0
-10 -4 -10 -10z"/>
<path d="M2768 3343 c7 -3 16 -2 19 1 4 3 -2 6 -13 5 -11 0 -14 -3 -6 -6z"/>
<path d="M3145 3370 c-3 -5 -1 -10 4 -10 6 0 11 5 11 10 0 6 -2 10 -4 10 -3 0
-8 -4 -11 -10z"/>
<path d="M3585 3390 c-4 -6 -3 -16 3 -22 6 -6 12 -6 17 2 4 6 3 16 -3 22 -6 6
-12 6 -17 -2z"/>
<path d="M857 3233 c-13 -12 -7 -33 8 -33 8 0 15 9 15 20 0 20 -11 26 -23 13z"/>
<path d="M917 3233 c-13 -12 -7 -33 8 -33 8 0 15 9 15 20 0 20 -11 26 -23 13z"/>
<path d="M650 2525 c0 -18 5 -25 20 -25 15 0 20 7 20 25 0 18 -5 25 -20 25
-15 0 -20 -7 -20 -25z"/>
<path d="M660 2470 c0 -5 5 -10 10 -10 6 0 10 5 10 10 0 6 -4 10 -10 10 -5 0
-10 -4 -10 -10z"/>
<path d="M1847 2503 c-13 -12 -7 -33 8 -33 8 0 15 9 15 20 0 20 -11 26 -23 13z"/>
<path d="M1970 2489 c0 -24 23 -21 28 4 2 10 -3 17 -12 17 -10 0 -16 -9 -16
-21z"/>
<path d="M2730 2490 c0 -11 7 -20 15 -20 8 0 15 9 15 20 0 11 -7 20 -15 20 -8
0 -15 -9 -15 -20z"/>
<path d="M3270 2489 c0 -24 23 -21 28 4 2 10 -3 17 -12 17 -10 0 -16 -9 -16
-21z"/>
<path d="M3420 2490 c0 -11 7 -20 15 -20 8 0 15 9 15 20 0 11 -7 20 -15 20 -8
0 -15 -9 -15 -20z"/>
<path d="M3987 2503 c-13 -12 -7 -33 8 -33 8 0 15 9 15 20 0 20 -11 26 -23 13z"/>
<path d="M1020 2490 c0 -11 7 -20 15 -20 8 0 15 9 15 20 0 11 -7 20 -15 20 -8
0 -15 -9 -15 -20z"/>
<path d="M2207 2503 c-13 -12 -7 -33 8 -33 8 0 15 9 15 20 0 20 -11 26 -23 13z"/>
<path d="M3330 2490 c0 -11 7 -20 15 -20 8 0 15 9 15 20 0 11 -7 20 -15 20 -8
0 -15 -9 -15 -20z"/>
<path d="M850 2329 c0 -24 23 -21 28 4 2 10 -3 17 -12 17 -10 0 -16 -9 -16
-21z"/>
<path d="M1002 2343 c2 -20 9 -28 23 -28 14 0 21 8 23 28 3 23 0 27 -23 27
-23 0 -26 -4 -23 -27z"/>
<path d="M1170 2325 c0 -8 7 -15 15 -15 8 0 15 7 15 15 0 8 -7 15 -15 15 -8 0
-15 -7 -15 -15z"/>
<path d="M1967 2343 c-13 -12 -7 -33 8 -33 8 0 15 9 15 20 0 20 -11 26 -23 13z"/>
<path d="M3070 2330 c0 -11 7 -20 15 -20 8 0 15 9 15 20 0 11 -7 20 -15 20 -8
0 -15 -9 -15 -20z"/>
<path d="M660 2122 c0 -20 18 -42 34 -42 6 0 5 5 -2 12 -7 7 -12 20 -12 30 0
10 -4 18 -10 18 -5 0 -10 -8 -10 -18z"/>
<path d="M1147 2103 c-13 -12 -7 -33 8 -33 8 0 15 9 15 20 0 20 -11 26 -23 13z"/>
<path d="M1320 2090 c0 -11 7 -20 15 -20 8 0 15 9 15 20 0 11 -7 20 -15 20 -8
0 -15 -9 -15 -20z"/>
<path d="M1534 2115 c-9 -21 3 -45 21 -45 10 0 15 10 15 30 0 32 -26 43 -36
15z"/>
<path d="M1637 2103 c-13 -12 -7 -33 8 -33 8 0 15 9 15 20 0 20 -11 26 -23 13z"/>
<path d="M1990 2090 c0 -11 7 -20 15 -20 8 0 15 9 15 20 0 11 -7 20 -15 20 -8
0 -15 -9 -15 -20z"/>
<path d="M1057 2103 c-13 -12 -7 -33 8 -33 8 0 15 9 15 20 0 20 -11 26 -23 13z"/>
<path d="M660 1899 c0 -5 5 -7 10 -4 6 3 10 8 10 11 0 2 -4 4 -10 4 -5 0 -10
-5 -10 -11z"/>
<path d="M1047 1863 c-13 -12 -7 -33 8 -33 8 0 15 9 15 20 0 20 -11 26 -23 13z"/>
<path d="M657 1634 c-14 -15 -6 -34 14 -34 14 0 19 5 17 17 -3 18 -20 27 -31
17z"/>
<path d="M1960 1610 c0 -11 5 -20 10 -20 6 0 10 9 10 20 0 11 -4 20 -10 20 -5
0 -10 -9 -10 -20z"/>
<path d="M1167 1623 c-13 -12 -7 -33 8 -33 8 0 15 9 15 20 0 20 -11 26 -23 13z"/>
<path d="M1527 1623 c-13 -12 -7 -33 8 -33 8 0 15 9 15 20 0 20 -11 26 -23 13z"/>
<path d="M1740 1610 c0 -13 5 -20 13 -17 6 2 12 10 12 17 0 7 -6 15 -12 18 -8
2 -13 -5 -13 -18z"/>
<path d="M1834 1616 c-8 -22 3 -33 18 -18 9 9 9 15 0 24 -9 9 -13 7 -18 -6z"/>
<path d="M1896 1623 c-12 -12 -6 -33 9 -33 8 0 15 6 15 14 0 17 -14 28 -24 19z"/>
<path d="M3940 1620 c0 -5 5 -10 10 -10 6 0 10 5 10 10 0 6 -4 10 -10 10 -5 0
-10 -4 -10 -10z"/>
<path d="M3948 1573 c7 -3 16 -2 19 1 4 3 -2 6 -13 5 -11 0 -14 -3 -6 -6z"/>
<path d="M3556 801 c-4 -7 -5 -15 -2 -18 9 -9 19 4 14 18 -4 11 -6 11 -12 0z"/>
<path d="M925 760 c-3 -5 -1 -10 4 -10 6 0 11 5 11 10 0 6 -2 10 -4 10 -3 0
-8 -4 -11 -10z"/>
<path d="M1070 771 c0 -14 6 -19 20 -18 12 1 20 8 20 19 0 11 -7 18 -20 18
-13 0 -20 -7 -20 -19z"/>
<path d="M1235 760 c-3 -5 -2 -10 4 -10 5 0 13 5 16 10 3 6 2 10 -4 10 -5 0
-13 -4 -16 -10z"/>
<path d="M3756 793 c-12 -12 -6 -43 9 -43 8 0 15 9 15 19 0 21 -13 34 -24 24z"/>
<path d="M3970 760 c0 -5 4 -10 9 -10 6 0 13 5 16 10 3 6 -1 10 -9 10 -9 0
-16 -4 -16 -10z"/>
</g>
</svg>
